<svg width="76" height="75" viewBox="0 0 76 75" fill="none" xmlns="http://www.w3.org/2000/svg">
<g clip-path="url(#clip0_234_340)">
<path d="M64.8219 37.5026C64.8219 54.7424 67.246 68.6583 70.2494 68.6583C73.2527 68.6583 75.6758 54.7424 75.6758 37.5026C75.6758 20.2628 73.2517 6.34695 70.2494 6.34695C67.2471 6.34695 64.823 20.2628 64.823 37.5026L64.8219 37.5026Z" fill="#62B6F3"/>
<path d="M54.1312 37.5026C54.1312 53.0175 56.3133 65.5425 59.0158 65.5425C61.7183 65.5425 63.9004 53.0186 63.9004 37.5026C63.9004 21.9867 61.7183 9.46274 59.0158 9.46274C56.3133 9.46274 54.1312 21.9867 54.1312 37.5026Z" fill="#62B6F3"/>
<path d="M43.4395 37.5028C43.4395 51.2938 45.3786 62.4269 47.7813 62.4269C50.184 62.4269 52.123 51.2937 52.123 37.5028C52.123 23.7118 50.184 12.5786 47.7813 12.5786C45.3786 12.5786 43.4395 23.7118 43.4395 37.5028Z" fill="#62B6F3"/>
<path d="M32.7498 37.5028C32.7498 49.5699 34.4469 59.3111 36.5488 59.3111C38.6506 59.3111 40.3477 49.5699 40.3477 37.5028C40.3477 25.4356 38.6506 15.6944 36.5487 15.6944C34.4469 15.6944 32.7498 25.4356 32.7498 37.5028Z" fill="#62B6F3"/>
<path d="M22.0582 37.5027C22.0582 47.8459 23.5122 56.1963 25.3143 56.1963C27.1163 56.1963 28.5703 47.847 28.5703 37.5027C28.5703 27.1584 27.1163 18.809 25.3143 18.809C23.5122 18.809 22.0582 27.1584 22.0582 37.5027Z" fill="#62B6F3"/>
<path d="M11.3685 37.5025C11.3685 46.1219 12.5806 53.0804 14.0817 53.0804C15.5829 53.0804 16.7949 46.1219 16.7949 37.5025C16.7949 28.8832 15.5829 21.9247 14.0817 21.9247C12.5806 21.9247 11.3685 28.8832 11.3685 37.5025Z" fill="#62B6F3"/>
<path d="M0.67494 37.5027C0.674941 44.3982 1.64501 49.9647 2.84529 49.9647C4.04556 49.9647 5.01562 44.3982 5.01562 37.5027C5.01562 30.6072 4.04556 25.0406 2.84528 25.0406C1.64501 25.0406 0.67494 30.6072 0.67494 37.5027Z" fill="#62B6F3"/>
</g>
<defs>
<clipPath id="clip0_234_340">
<rect width="75" height="75" fill="white" transform="translate(0.675781)"/>
</clipPath>
</defs>
</svg>
