<svg width="71" height="65" viewBox="0 0 71 65" fill="none" xmlns="http://www.w3.org/2000/svg">
<path d="M24.1175 28.4431C25.6796 27.387 54.3831 7.98079 55.7758 7.03945C55.3846 6.93587 32.6756 0.916212 32.3341 0.825928L3.84133 20.0894M24.1175 28.4431L3.01967 22.8511M24.1175 28.4431C24.3254 28.9415 35.0741 54.7383 37.5167 60.6012L39.0053 64.174M3.84133 20.0894L0.675781 22.2296L3.01967 22.8511M3.84133 20.0894L27.2838 26.3029C27.9703 27.9511 41.4857 60.3877 42.1716 62.0338M3.01967 22.8511L17.9075 58.582M3.01967 22.8511L34.678 1.44742M39.0053 64.174L42.1709 62.0338C42.5397 61.784 71.3712 42.2916 70.6629 42.7704C68.6004 37.8194 62.0551 22.1113 60.2418 17.7588M39.0053 64.174L36.6614 63.5526M60.2418 17.7588L58.7531 14.1859M60.2418 17.7588C59.8239 18.0415 29.2014 38.7454 28.5834 39.1625L5.14171 32.949M58.7531 14.1859C56.8585 9.6381 57.6711 11.5887 55.7758 7.04015M58.7531 14.1859L55.5876 16.3261M69.175 39.1968C66.1396 41.2488 40.8789 58.3273 37.5167 60.6005C37.0527 60.4773 14.4214 54.4786 14.075 54.3869M14.075 54.3869L0.675781 22.2303M14.075 54.3869L15.5636 57.9598L17.9075 58.5813C18.6235 58.771 33.4595 62.7036 34.3168 62.9311M45.3371 59.8929C44.0011 56.6853 31.8974 27.6376 30.4493 24.1627L7.00688 17.9492M48.5027 57.7527C45.482 50.504 36.3696 28.6349 33.6149 22.0225L10.1724 15.8089M51.6689 55.6124C51.13 54.3198 37.2878 21.0986 36.7811 19.8815L13.3394 13.668M54.8345 53.4722C54.1906 51.9262 41.0105 20.2945 39.9467 17.7413L16.5049 11.5278M58 51.332C56.4841 47.694 44.5827 19.1313 43.1122 15.6018L19.6705 9.38824M61.1663 49.191C60.7058 48.0852 46.4898 13.9682 46.2785 13.4608L22.8367 7.24731M64.3318 47.0508C63.8776 45.9611 49.5427 11.5572 49.444 11.3199L26.0023 5.10639M67.4981 44.9106C66.1249 41.6149 56.7368 19.0837 55.5876 16.3261M55.5876 16.3261C55.5498 16.2352 54.6987 14.1915 52.6103 9.17968C52.1463 9.0565 29.515 3.05784 29.1685 2.96616M55.5876 16.3261L27.0955 35.5896L3.65307 29.3761M67.6857 35.6239C65.2802 37.2504 37.1458 56.2717 36.0273 57.0276L12.5856 50.8141M66.197 32.051C65.0121 32.8517 35.9868 52.4763 34.5387 53.4547L11.097 47.2412M64.7084 28.4781C53.6727 35.9395 45.5247 41.4483 33.0501 49.8818L9.60833 43.6683M63.2197 24.9046C58.5459 28.0652 31.959 46.0395 31.5614 46.3082L8.11969 40.0947M61.7311 21.3317C61.1047 21.7551 30.9308 42.1559 30.0728 42.7354L6.63105 36.5218M57.2645 10.6123C56.7459 10.963 25.7853 31.8956 25.6062 32.016L2.16442 25.8032M36.6614 63.5526L34.3168 62.9311M36.6614 63.5526C35.3597 60.429 22.4336 29.4062 21.7736 27.8223C22.2495 27.5004 52.8076 6.83999 53.4319 6.41866M34.3168 62.9311L19.429 27.2009L51.0873 5.79717M20.2521 59.2035L5.36427 23.4726L37.0219 2.06891M22.596 59.8243L7.70816 24.0941L39.3665 2.6904M24.9406 60.4458L10.0528 24.7156L41.7104 3.3112M27.2845 61.0673L12.3966 25.3371L44.055 3.93269M29.6284 61.6888L14.7405 25.9586L46.3989 4.55418M31.973 62.3103L17.0851 26.5801L48.7434 5.17567" stroke="#62B6F3" stroke-width="0.537975" stroke-miterlimit="10" stroke-linecap="round"/>
</svg>
