<svg width="76" height="76" viewBox="0 0 76 76" fill="none" xmlns="http://www.w3.org/2000/svg">
<path d="M39.2456 61.7276C40.3742 59.7725 42.4754 58.5581 44.7305 58.5581C48.2195 58.5581 51.0586 61.3964 51.0586 64.8862C51.0586 68.376 48.2203 71.2144 44.7305 71.2144C41.2407 71.2144 38.4023 68.376 38.4023 64.8862C38.4023 63.7757 38.6936 62.6834 39.2456 61.7276Z" fill="#62B6F3"/>
<path d="M22.9336 64.8862C22.9336 61.3972 25.7719 58.5581 29.2617 58.5581C31.5161 58.5581 33.618 59.7725 34.7466 61.7276C35.2979 62.6834 35.5898 63.7757 35.5898 64.8862C35.5898 68.3753 32.7515 71.2144 29.2617 71.2144C25.7719 71.2144 22.9336 68.376 22.9336 64.8862Z" fill="#62B6F3"/>
<path d="M31.3711 52.23C31.3711 51.1195 31.63 50.0272 32.1206 49.0714C33.1239 47.1162 34.9915 45.9019 36.9961 45.9019C39.0006 45.9019 40.8683 47.1162 41.8716 49.0714C42.3616 50.0272 42.6211 51.1195 42.6211 52.23C42.6211 55.7191 40.0975 58.5581 36.9961 58.5581C33.8947 58.5581 31.3711 55.7198 31.3711 52.23Z" fill="#62B6F3"/>
<path d="M10.4968 56.2166C10.934 54.5843 11.9812 53.2201 13.4447 52.3756C14.4062 51.8202 15.4978 51.5269 16.601 51.5269C18.8582 51.5269 20.96 52.7394 22.0872 54.6911C23.8317 57.7123 22.7924 61.5888 19.7711 63.3328C18.307 64.1779 16.6017 64.4023 14.9698 63.9645C13.3372 63.5274 11.9725 62.4804 11.1279 61.0173C10.2825 59.5543 10.0581 57.8495 10.496 56.2173L10.4968 56.2166Z" fill="#62B6F3"/>
<path d="M3.46409 43.5589C3.90135 41.9264 4.94876 40.5619 6.41237 39.7174C7.40603 39.1437 8.49339 38.8706 9.56622 38.8706C11.7555 38.8706 13.8866 40.0057 15.0575 42.0332C16.1848 43.9852 16.1841 46.4129 15.0546 48.3671C14.5026 49.3228 13.7028 50.1209 12.7411 50.6764C11.2768 51.5217 9.57203 51.7461 7.93918 51.3082C6.30633 50.871 4.9415 49.8238 4.09674 48.3606C3.25126 46.8973 3.02681 45.1922 3.46481 43.5597L3.46409 43.5589Z" fill="#62B6F3"/>
<path d="M18.9112 43.5618C19.2998 41.9291 20.2307 40.5644 21.5316 39.7197C22.3863 39.164 23.3566 38.8706 24.3373 38.8706C26.3437 38.8706 28.212 40.0835 29.214 42.0359C30.2159 43.9882 30.2152 46.4155 29.2114 48.3707C28.7207 49.3266 28.01 50.1248 27.1546 50.6804C24.4683 52.425 21.0216 51.3856 19.4709 48.3642C18.7194 46.9007 18.52 45.1953 18.9092 43.5626L18.9112 43.5618Z" fill="#62B6F3"/>
<path d="M15.0546 26.5617C16.1837 28.5159 16.1852 30.9437 15.0575 32.8958C13.3123 35.9169 9.43315 36.9561 6.40989 35.2117C3.38736 33.4673 2.34763 29.59 4.09286 26.5682C4.93858 25.1049 6.30308 24.0576 7.93641 23.6205C8.48134 23.4745 9.03499 23.4019 9.585 23.4019C10.6821 23.4019 11.7647 23.6894 12.7398 24.2523C13.7017 24.8078 14.5024 25.606 15.0546 26.5617Z" fill="#62B6F3"/>
<path d="M16.5982 23.4019C15.4953 23.4019 14.404 23.1085 13.4427 22.553C11.9796 21.7078 10.9326 20.3442 10.4955 18.7119C10.0584 17.0795 10.2827 15.3746 11.1272 13.9115C11.9723 12.4484 13.3359 11.4013 14.9682 10.9642C15.5127 10.8182 16.066 10.7456 16.6156 10.7456C17.712 10.7456 18.7939 11.0331 19.7683 11.5959C21.2313 12.4411 22.2783 13.8047 22.7154 15.4371C23.1525 17.0694 22.9282 18.7743 22.0838 20.2374C20.9569 22.1892 18.8549 23.4019 16.5989 23.4019H16.5982Z" fill="#62B6F3"/>
<path d="M22.8863 23.6204C23.3706 23.4745 23.8626 23.4019 24.3514 23.4019C25.3264 23.4019 26.2884 23.6894 27.155 24.2521C28.0099 24.8075 28.7214 25.6055 29.2115 26.561C30.2149 28.5156 30.2162 30.9422 29.2141 32.8939C28.212 34.8456 26.3427 36.0581 24.3359 36.0581C23.3551 36.0581 22.3846 35.7648 21.5297 35.2093C20.2286 34.3642 19.2975 33.0006 18.9088 31.3684C18.5201 29.7362 18.7196 28.0313 19.4706 26.5683C20.2222 25.1052 21.4348 24.0582 22.8863 23.6211V23.6204Z" fill="#62B6F3"/>
<path d="M34.7466 13.2009C33.618 15.1562 31.5168 16.3706 29.2617 16.3706C25.7726 16.3706 22.9336 13.5321 22.9336 10.0421C22.9336 6.55212 25.7726 3.71436 29.2617 3.71436C32.7508 3.71436 35.5898 6.55357 35.5898 10.0428C35.5898 11.1534 35.2986 12.2458 34.7466 13.2016V13.2009Z" fill="#62B6F3"/>
<path d="M51.0586 10.0425C51.0586 13.5316 48.2203 16.3706 44.7305 16.3706C42.4761 16.3706 40.3742 15.1563 39.2456 13.2011C38.6943 12.2453 38.4023 11.153 38.4023 10.0425C38.4023 6.55341 41.2414 3.71436 44.7305 3.71436C48.2195 3.71436 51.0586 6.55341 51.0586 10.0425Z" fill="#62B6F3"/>
<path d="M42.6211 22.6987C42.6211 23.8092 42.3622 24.9016 41.8716 25.8573C40.8683 27.8125 39.0006 29.0269 36.9961 29.0269C34.9915 29.0269 33.1239 27.8125 32.1206 25.8573C31.6306 24.9016 31.3711 23.8092 31.3711 22.6987C31.3711 19.2097 33.8947 16.3706 36.9961 16.3706C40.0975 16.3706 42.6211 19.2089 42.6211 22.6987Z" fill="#62B6F3"/>
<path d="M63.4954 18.7121C63.0582 20.3443 62.0109 21.7086 60.5475 22.5531C59.586 23.1085 58.4944 23.4019 57.3912 23.4019C55.134 23.4019 53.0322 22.1893 51.905 20.2376C50.1605 17.2164 51.1998 13.3399 54.2211 11.5958C55.1957 11.0331 56.2786 10.7456 57.3745 10.7456C57.9243 10.7456 58.4777 10.8175 59.0224 10.9642C60.655 11.4013 62.0197 12.4483 62.8643 13.9113C63.7097 15.3743 63.9341 17.0792 63.4962 18.7114L63.4954 18.7121Z" fill="#62B6F3"/>
<path d="M70.5274 31.37C70.0902 33.0026 69.0428 34.3671 67.5793 35.2117C64.5571 36.9561 60.6793 35.9169 58.9346 32.8958C57.8074 30.9437 57.8081 28.5159 58.9375 26.5617C59.4896 25.606 60.2892 24.8078 61.2509 24.2523C62.2256 23.6894 63.3085 23.4019 64.4045 23.4019C64.9544 23.4019 65.5078 23.4738 66.0526 23.6204C67.6853 24.0576 69.0501 25.1049 69.8948 26.5682C70.741 28.0323 70.9654 29.7375 70.5274 31.37Z" fill="#62B6F3"/>
<path d="M44.779 26.5585C45.2697 25.6026 45.9806 24.8044 46.8362 24.2488C47.7195 23.675 48.6861 23.4019 49.6398 23.4019C51.5859 23.4019 53.4803 24.5371 54.5212 26.565C55.2728 28.0286 55.4723 29.734 55.0829 31.3668C54.6942 32.9995 53.7631 34.3643 52.4621 35.209C51.6072 35.7647 50.6367 36.0581 49.6559 36.0581C47.6491 36.0581 45.7805 34.8451 44.7784 32.8928C43.7763 30.9404 43.7769 28.513 44.7809 26.5577L44.779 26.5585Z" fill="#62B6F3"/>
<path d="M58.9376 48.3674C57.8085 46.4131 57.807 43.9853 58.9347 42.0331C60.6799 39.0112 64.559 37.9727 67.5823 39.7171C70.6048 41.4616 71.6446 45.339 69.8993 48.3609C69.0536 49.8242 67.6891 50.8715 66.0558 51.3087C64.4224 51.7459 62.7165 51.5214 61.2524 50.6768C60.2904 50.1213 59.4898 49.3231 58.9376 48.3674Z" fill="#62B6F3"/>
<path d="M57.394 51.5269C58.4969 51.5269 59.5882 51.8202 60.5495 52.3757C62.0126 53.2209 63.0596 54.5846 63.4967 56.217C63.9338 57.8494 63.7094 59.5544 62.865 61.0175C62.0198 62.4807 60.6563 63.5278 59.024 63.9649C57.3918 64.4021 55.687 64.1777 54.2239 63.3332C52.7609 62.488 51.7138 61.1243 51.2767 59.4919C50.8396 57.8595 51.064 56.1546 51.9084 54.6914C53.0353 52.7395 55.1373 51.5269 57.3933 51.5269H57.394Z" fill="#62B6F3"/>
<path d="M44.7807 48.3685C43.7773 46.4138 43.776 43.987 44.7781 42.0351C45.7802 40.0833 47.6495 38.8706 49.6563 38.8706C50.6371 38.8706 51.6076 39.164 52.4625 39.7195C53.7636 40.5647 54.6946 41.9284 55.0833 43.5608C55.4721 45.1931 55.2725 46.8981 54.5216 48.3613C53.77 49.8245 52.5574 50.8716 51.1059 51.3087C49.6544 51.7458 48.1383 51.5215 46.8372 50.6769C45.9823 50.1215 45.2708 49.3234 44.7807 48.3678V48.3685Z" fill="#62B6F3"/>
</svg>
