<svg width="300" height="46" fill="none" xmlns="http://www.w3.org/2000/svg"><path d="M17.249 43.386C27.21 21.882 14.115.5 14.115.5c19.382 8.591 25.287 23.06 26.883 33.31-9.361 1.435-16.32 6.837-23.75 9.576z" fill="#62B6F3"/><path d="M11.048 44.923c-3.7.394-7.44.133-11.048-.772 6.674-6.372 16.669-18.694 14.117-33.606 0 0 7.642 18.726-3.07 34.378z" fill="#62B6F3"/><path d="M79.034 11.787h6.356v25.099h-3.527V14.373l.106.033-5.948 22.479h-5.105l-6-22.492.105-.052v22.544h-3.546v-25.1h6.355L73.501 34.5h-.17l5.703-22.713zm9.329 25.099l6.75-25.151h5.843l6.677 25.144h-3.822l-5.803-22.812h.033L92.2 36.886h-3.836zm3.908-6.385v-3.064h11.514V30.5H92.271zm26.798-15.669v.032h-11.217v-3.077h15.329v2.894a13.105 13.105 0 00-3.204 3.307 19.182 19.182 0 00-2.132 4.228 29.194 29.194 0 00-1.276 4.79c-.296 1.66-.5 3.332-.619 5.011-.111 1.68-.171 3.3-.171 4.868h-3.717c0-1.679.059-3.371.178-5.09a44.93 44.93 0 01.631-5.038 29.612 29.612 0 011.25-4.685 19.619 19.619 0 012.014-4.078 12.724 12.724 0 012.927-3.162h.007zm15.178 22.054l7.178-25.184h3.269l7.126 25.184h-2.211l-6.579-23.734h.033l-6.612 23.733h-2.211.007zm3.289-6.992v-1.856h11.047v1.856h-11.047zm16.138 6.992V18.81h2.125v18.07h-2.125v.007zm13.092 0V25.607c0-1.006-.177-1.888-.539-2.646a3.953 3.953 0 00-1.652-1.771c-.743-.425-1.697-.64-2.862-.64a5.851 5.851 0 00-2.894.758 6.072 6.072 0 00-2.185 2.051c-.552.863-.829 1.83-.829 2.908l-1.282-.477c0-1.372.355-2.6 1.072-3.692a7.718 7.718 0 012.809-2.587 7.576 7.576 0 013.691-.954c1.382 0 2.579.26 3.599.777a5.524 5.524 0 012.355 2.228c.553.967.829 2.15.829 3.529v11.788h-2.105l-.007.007zm16.646-.765c.934.065 1.763.235 2.487.51.723.274 1.283.666 1.684 1.182.401.517.605 1.183.605 2 0 .908-.316 1.718-.941 2.43-.625.713-1.592 1.282-2.894 1.693-1.303.412-2.961.621-4.987.621-2.81 0-4.908-.418-6.303-1.261-1.395-.843-2.092-1.947-2.092-3.32 0-.477.052-.888.164-1.235.112-.346.23-.62.369-.823l2.019.307c-.105.15-.197.36-.289.64a3.124 3.124 0 00-.138.98c0 1.007.552 1.758 1.651 2.248 1.099.49 2.684.732 4.757.732 1.566 0 2.835-.13 3.809-.385.974-.255 1.697-.601 2.165-1.046.467-.444.704-.928.704-1.463 0-.817-.336-1.353-1-1.608-.672-.255-1.501-.425-2.494-.503l-6.934-.49c-1.119-.092-2.02-.412-2.704-.96-.685-.55-1.027-1.249-1.027-2.085 0-.51.132-.987.389-1.431a4.12 4.12 0 01.907-1.104c.349-.295.658-.477.935-.543l1.697.817c-.309.059-.684.261-1.132.614-.447.353-.664.784-.664 1.294 0 .45.191.83.572 1.124.382.294 1.079.483 2.099.562l6.592.51-.006-.007zm2.691-17.31h2.006l-.756 7.162c-.139 1.34-.52 2.555-1.145 3.64a6.956 6.956 0 01-2.619 2.594c-1.118.64-2.493.96-4.112.96-1.618 0-3.111-.326-4.289-.967-1.184-.647-2.086-1.516-2.704-2.613-.625-1.092-.934-2.314-.934-3.666 0-1.353.329-2.614.993-3.725.665-1.11 1.579-1.993 2.757-2.653 1.177-.66 2.533-.986 4.079-.986 1.427 0 2.658.254 3.684.764 1.026.51 1.836 1.143 2.421 1.888.586.752.921 1.484 1 2.21h-.77l.395-4.614-.006.006zm-6.632 12.474c1.224 0 2.27-.222 3.132-.672.868-.451 1.532-1.079 1.993-1.889.461-.81.691-1.764.691-2.869 0-1.104-.23-1.986-.691-2.796-.461-.81-1.125-1.45-1.993-1.915-.869-.464-1.908-.7-3.119-.7-1.211 0-2.171.236-3.059.713-.888.477-1.573 1.124-2.066 1.947-.493.824-.737 1.758-.737 2.797 0 1.04.23 2.006.691 2.817.46.81 1.131 1.444 2.007 1.888.875.444 1.921.673 3.144.673l.007.006zm11.078-2.548v-1.888h14.731l-.408.581v-.34a7.18 7.18 0 00-.757-3.267 6.007 6.007 0 00-2.184-2.43c-.954-.615-2.118-.922-3.487-.922-1.368 0-2.618.314-3.684.94-1.066.628-1.888 1.497-2.487 2.602-.599 1.104-.888 2.391-.888 3.855s.296 2.77.882 3.888a6.349 6.349 0 002.473 2.6c1.059.615 2.303.928 3.717.928 1.04 0 1.948-.13 2.718-.385.769-.255 1.408-.595 1.921-1.013.506-.418.894-.862 1.164-1.333.27-.47.428-.915.474-1.333h2.105c-.046.667-.263 1.353-.645 2.052-.381.7-.927 1.346-1.625 1.947-.697.601-1.572 1.085-2.605 1.457-1.033.366-2.224.556-3.572.556-1.757 0-3.323-.399-4.685-1.19a8.543 8.543 0 01-3.223-3.293c-.783-1.405-1.172-3.012-1.172-4.842 0-1.83.395-3.457 1.185-4.855a8.669 8.669 0 013.237-3.293c1.368-.797 2.927-1.19 4.677-1.19 1.75 0 3.323.406 4.625 1.21a8.107 8.107 0 013.014 3.273c.704 1.379 1.059 2.921 1.059 4.64 0 .15 0 .333-.007.561 0 .23-.013.392-.026.497h-16.533l.006-.013zm21.547-18.447v26.596h-2.092V10.29h2.092zm10.29 26.916c-1.099 0-2.099-.112-3-.34-.901-.229-1.678-.556-2.329-.993-.651-.438-1.158-.968-1.513-1.601-.362-.628-.546-1.353-.559-2.17a2.36 2.36 0 01-.02-.313v-.282h2.138v.51c.033 1.046.52 1.85 1.447 2.424.928.575 2.218.856 3.862.856 1.053 0 1.974-.117 2.77-.346.796-.235 1.421-.581 1.875-1.039.454-.457.684-1.02.684-1.673 0-1.097-.473-1.888-1.427-2.358-.954-.471-2.356-.863-4.204-1.183a20.224 20.224 0 01-2.685-.621c-.829-.255-1.552-.575-2.177-.967a4.423 4.423 0 01-1.467-1.47c-.356-.588-.533-1.3-.533-2.124 0-1.052.322-1.954.96-2.686.638-.738 1.5-1.3 2.579-1.686 1.079-.385 2.27-.581 3.573-.581 1.302 0 2.473.196 3.552.588 1.079.392 1.948.974 2.593 1.745.651.77.973 1.744.973 2.927v.372h-2.125v-.307c0-.83-.237-1.49-.704-1.993-.467-.496-1.079-.862-1.835-1.097a8.085 8.085 0 00-2.415-.347 9.55 9.55 0 00-2.434.307c-.776.203-1.408.523-1.895.961-.487.438-.73 1.013-.73 1.725 0 .712.23 1.287.684 1.725.454.438 1.099.79 1.934 1.052.836.268 1.803.503 2.915.706 1.013.183 1.947.399 2.789.653.843.255 1.579.575 2.191.96.619.386 1.099.87 1.441 1.458.342.582.513 1.294.513 2.137s-.191 1.555-.566 2.189a4.757 4.757 0 01-1.585 1.588c-.678.431-1.474.758-2.375.967-.901.209-1.882.327-2.928.327h.033zm34.567-8.828c0 .986-.185 1.993-.546 3.025a9.467 9.467 0 01-1.645 2.869c-.73.882-1.651 1.588-2.757 2.123-1.105.536-2.401.81-3.888.81-2.053 0-3.809-.542-5.257-1.633-1.454-1.091-2.552-2.6-3.316-4.541-.756-1.941-1.138-4.17-1.138-6.685 0-2.516.382-4.757 1.138-6.685.757-1.927 1.862-3.43 3.316-4.515 1.448-1.085 3.204-1.627 5.257-1.627 1.724 0 3.197.36 4.415 1.078 1.217.719 2.177 1.634 2.894 2.751.711 1.111 1.171 2.254 1.382 3.418a7.93 7.93 0 01.151 1.529h-2.125a7.308 7.308 0 00-1.138-3.888 6.492 6.492 0 00-2.23-2.15c-.928-.556-2.046-.836-3.349-.836-1.52 0-2.842.43-3.974 1.287-1.131.856-2.006 2.097-2.638 3.718-.632 1.62-.941 3.594-.941 5.92s.316 4.293.941 5.927c.632 1.64 1.507 2.888 2.638 3.744 1.132.856 2.454 1.287 3.974 1.287 1.086 0 2.046-.202 2.875-.614a6.302 6.302 0 002.105-1.627c.573-.673 1-1.418 1.296-2.235a7.137 7.137 0 00.435-2.45h2.125zm4.639-18.088v26.596H259.5V10.29h2.092zm10.229 26.903c-1.302 0-2.375-.23-3.23-.68-.849-.45-1.513-1.039-1.994-1.758a6.87 6.87 0 01-1-2.32 10.47 10.47 0 01-.283-2.332V18.81h2.139v10.821c0 .967.144 1.876.427 2.732a4.253 4.253 0 001.474 2.084c.697.536 1.645.797 2.842.797 1.132 0 2.125-.307 2.981-.921a6.49 6.49 0 002.013-2.34c.487-.947.73-1.92.73-2.914l1.303.53c0 .908-.171 1.803-.507 2.698a8.294 8.294 0 01-1.454 2.45 6.983 6.983 0 01-2.329 1.778c-.921.444-1.954.667-3.112.667zm6.099-.307V18.81h2.125v18.07h-2.125v.007zm5.738 0V10.29h2.138v26.596h-2.138zm8.395.32a7.69 7.69 0 01-3.868-1.007 7.89 7.89 0 01-2.869-2.724c-.724-1.144-1.085-2.431-1.085-3.862v-.15l1.572-.033v.137c0 1.02.276 1.96.829 2.823a6.115 6.115 0 002.191 2.058c.908.51 1.895.765 2.954.765 1.756 0 3.204-.621 4.342-1.863 1.138-1.241 1.704-3.077 1.704-5.502 0-2.424-.566-4.273-1.697-5.515-1.132-1.235-2.579-1.855-4.349-1.855a5.941 5.941 0 00-2.954.764 6.177 6.177 0 00-2.191 2.039 5.065 5.065 0 00-.829 2.823l-1.572-.053c0-1.43.361-2.711 1.085-3.842a7.813 7.813 0 012.869-2.679 7.892 7.892 0 013.868-.98c1.474 0 2.809.36 4.02 1.078 1.204.719 2.158 1.77 2.868 3.156.711 1.386 1.06 3.071 1.06 5.051s-.349 3.712-1.053 5.104-1.651 2.45-2.849 3.175c-1.197.72-2.546 1.079-4.046 1.079v.013z" fill="#fff"/></svg>