<svg width="276" height="44" fill="none" xmlns="http://www.w3.org/2000/svg"><path d="M75.72 13.892h5.734v22.802h-3.182V16.242l.095.03-5.366 20.422h-4.607L62.986 16.26l.095-.047v20.48h-3.2v-22.8h5.735l5.117 20.635h-.154l5.147-20.635h-.007zm8.419 22.802l6.09-22.844h5.272l6.026 22.844h-3.45l-5.241-20.73h.03l-5.272 20.73h-3.461.006zm3.526-5.8V28.11h10.389v2.784H87.665zm24.179-14.236v.03h-10.121v-2.796h13.832v2.63a11.865 11.865 0 00-2.891 3.003 17.481 17.481 0 00-1.924 3.841 26.668 26.668 0 00-1.151 4.352 43.075 43.075 0 00-.558 4.553 67.02 67.02 0 00-.155 4.423h-3.354c0-1.526.053-3.063.16-4.625a41.07 41.07 0 01.57-4.577 26.903 26.903 0 011.128-4.256 17.922 17.922 0 011.817-3.705 11.512 11.512 0 012.642-2.873h.005zm30.68 12.307c0 .896-.166 1.81-.493 2.748a8.59 8.59 0 01-1.484 2.606c-.659.802-1.49 1.443-2.487 1.93-.997.487-2.167.736-3.509.736-1.852 0-3.437-.493-4.743-1.484-1.312-.992-2.303-2.363-2.992-4.126-.683-1.763-1.027-3.788-1.027-6.073 0-2.286.344-4.322 1.027-6.073.683-1.752 1.68-3.117 2.992-4.102 1.306-.986 2.891-1.479 4.743-1.479 1.556 0 2.886.327 3.984.98 1.098.653 1.965 1.484 2.612 2.5.641 1.009 1.057 2.047 1.247 3.104.095.487.136.95.136 1.39h-1.917a6.782 6.782 0 00-1.027-3.533 5.879 5.879 0 00-2.013-1.953c-.837-.505-1.846-.76-3.022-.76-1.371 0-2.564.392-3.585 1.17-1.021.777-1.811 1.905-2.381 3.377-.57 1.473-.849 3.265-.849 5.379 0 2.113.285 3.9.849 5.384.57 1.49 1.36 2.624 2.381 3.402 1.021.778 2.214 1.17 3.585 1.17.98 0 1.847-.185 2.595-.559a5.693 5.693 0 001.899-1.478 6.548 6.548 0 001.17-2.03 6.525 6.525 0 00.392-2.226h1.917zm9.552 8.008c-1.609 0-3.028-.368-4.269-1.104-1.24-.737-2.202-1.752-2.903-3.04-.7-1.288-1.05-2.743-1.05-4.357 0-1.615.35-3.076 1.05-4.346a7.755 7.755 0 012.903-2.986c1.235-.718 2.66-1.08 4.269-1.08 1.608 0 3.027.362 4.268 1.08a7.772 7.772 0 012.909 2.986c.7 1.27 1.051 2.713 1.051 4.346 0 1.632-.351 3.069-1.051 4.357a7.79 7.79 0 01-2.909 3.04c-1.241.736-2.66 1.104-4.268 1.104zm0-1.752c1.234 0 2.327-.29 3.271-.866.944-.576 1.68-1.377 2.22-2.399.534-1.02.801-2.184.801-3.49s-.267-2.476-.801-3.48a5.891 5.891 0 00-2.22-2.338c-.944-.564-2.031-.843-3.271-.843-1.241 0-2.316.279-3.26.843a5.918 5.918 0 00-2.226 2.339c-.534.997-.801 2.16-.801 3.479 0 1.318.267 2.475.801 3.49a6.037 6.037 0 002.226 2.399c.95.576 2.037.867 3.26.867zm10.668 1.473V20.279h1.918v16.415h-1.918zm10.051 0V26.257c0-.403-.03-.854-.095-1.353a4.49 4.49 0 00-.428-1.443 2.806 2.806 0 00-1.045-1.151c-.474-.303-1.128-.457-1.965-.457-.878 0-1.608.172-2.196.516a4.175 4.175 0 00-1.413 1.336 5.734 5.734 0 00-.766 1.745 7.225 7.225 0 00-.231 1.745l-1.146-.445a7.45 7.45 0 01.742-3.3 6.293 6.293 0 012.107-2.464c.909-.63 1.995-.944 3.254-.944 1.258 0 2.178.237 2.92.718.743.481 1.289 1.152 1.633 2.007.344.86.517 1.87.517 3.022v10.899h-1.9l.012.006zm10.015 0V26.18c0-.391-.024-.83-.078-1.323a4.25 4.25 0 00-.409-1.413c-.22-.451-.576-.831-1.069-1.134-.487-.303-1.169-.457-2.048-.457-.878 0-1.609.172-2.196.51a3.982 3.982 0 00-1.39 1.306 5.382 5.382 0 00-.718 1.668 7.043 7.043 0 00-.208 1.585l-1.145-.415a7.03 7.03 0 01.718-3.129 6.136 6.136 0 012.066-2.404c.896-.617 1.977-.926 3.247-.926 1.134 0 2.078.22 2.838.647.76.433 1.33 1.05 1.715 1.852.386.802.582 1.781.582 2.939v11.208h-1.905zm5.153 0V20.279h1.917v16.415h-1.917zm10.045 0V26.257c0-.403-.03-.854-.095-1.353a4.49 4.49 0 00-.428-1.443 2.806 2.806 0 00-1.045-1.151c-.475-.303-1.128-.457-1.965-.457-.878 0-1.609.172-2.196.516a4.175 4.175 0 00-1.413 1.336 5.71 5.71 0 00-.766 1.745 7.225 7.225 0 00-.231 1.745l-1.146-.445a7.45 7.45 0 01.742-3.3 6.293 6.293 0 012.107-2.464c.909-.63 1.995-.944 3.254-.944 1.258 0 2.178.237 2.92.718a4.197 4.197 0 011.633 2.007c.344.86.516 1.87.516 3.022v10.899h-1.899l.012.006zm10.02 0V26.18c0-.391-.023-.83-.077-1.323a4.25 4.25 0 00-.409-1.413c-.22-.451-.576-.831-1.069-1.134-.487-.303-1.169-.457-2.048-.457s-1.609.172-2.197.51a3.987 3.987 0 00-1.389 1.306 5.358 5.358 0 00-.718 1.668 6.986 6.986 0 00-.208 1.585l-1.146-.415c0-1.104.238-2.143.719-3.129a6.136 6.136 0 012.066-2.404c.896-.617 1.977-.926 3.247-.926 1.134 0 2.078.22 2.838.647a4.154 4.154 0 011.715 1.852c.386.802.582 1.781.582 2.939v11.208h-1.906zm10.917.279c-1.175 0-2.143-.208-2.914-.618-.766-.41-1.366-.944-1.799-1.596a6.248 6.248 0 01-.903-2.108 9.541 9.541 0 01-.255-2.12V20.286h1.93v9.831c0 .879.13 1.704.385 2.482a3.867 3.867 0 001.33 1.893c.63.487 1.484.725 2.565.725 1.021 0 1.917-.28 2.689-.837a5.888 5.888 0 001.817-2.126c.439-.86.659-1.745.659-2.647l1.175.48c0 .826-.154 1.639-.457 2.452a7.565 7.565 0 01-1.312 2.226 6.295 6.295 0 01-2.102 1.615c-.831.404-1.763.606-2.808.606v-.012zm5.504-.28V20.28h1.917v16.415h-1.917zm5.176.001V20.279h1.918v16.415h-1.918zm11.808 0V26.447c0-.914-.161-1.715-.487-2.404a3.585 3.585 0 00-1.49-1.609c-.671-.385-1.532-.581-2.582-.581-.927 0-1.799.231-2.613.688a5.489 5.489 0 00-1.97 1.864c-.499.784-.748 1.663-.748 2.642l-1.158-.433c0-1.247.32-2.363.968-3.354a6.99 6.99 0 012.534-2.351 6.801 6.801 0 013.331-.867c1.247 0 2.327.237 3.247.706a4.996 4.996 0 012.125 2.025c.499.878.748 1.953.748 3.206v10.709h-1.899l-.006.006zm6.055-20.558c-.404 0-.748-.119-1.039-.35-.291-.232-.433-.547-.433-.938 0-.392.142-.69.433-.92.291-.232.635-.35 1.039-.35.404 0 .73.118 1.021.35.291.23.433.54.433.92s-.142.7-.433.938a1.59 1.59 0 01-1.021.35zm-.956 20.558V20.279h1.888v16.415h-1.888zm10.907.243c-.463 0-.915-.06-1.354-.172a2.863 2.863 0 01-1.175-.611c-.345-.291-.618-.7-.814-1.211-.196-.517-.296-1.17-.296-1.965V21.959h-3.96v-1.686h2.843c.268 0 .481-.011.636-.03.154-.017.267-.07.332-.154.065-.083.107-.213.125-.386.018-.172.024-.415.024-.724v-4.001h1.917v5.301h5.254v1.686h-5.254V32.29c0 .926.137 1.656.41 2.179.273.522.789.79 1.555.79.291 0 .57-.025.849-.078s.487-.107.635-.172v1.668a3.237 3.237 0 01-.724.184 6.56 6.56 0 01-1.003.077zm5.817 6.619c-.38 0-.731-.023-1.045-.07-.315-.048-.511-.09-.594-.131v-1.686c.137.06.35.119.659.16a5.7 5.7 0 00.873.071c.712 0 1.3-.16 1.769-.487a3.943 3.943 0 001.169-1.288c.309-.534.57-1.116.79-1.733l.57-1.657-5.765-16.462h2.007l4.945 14.7h-.279l4.886-14.7h1.965l-6.245 18.024a17.999 17.999 0 01-1.11 2.553 5.52 5.52 0 01-1.734 1.953c-.724.498-1.674.748-2.861.748v.005z" fill="#fff"/><path d="M15.85 39.692C25.004 19.846 12.97.102 12.97.102c17.822 7.936 23.236 21.288 24.703 30.75-8.602 1.324-15.002 6.305-21.829 8.84h.006z" fill="#32ACEF"/><path d="M10.152 41.105c-3.8.451-7.362-.03-10.152-.707 6.132-5.883 15.316-17.257 12.971-31.024 0 0 7.023 17.281-2.82 31.73z" fill="#32ACEF"/></svg>