<svg width="254" height="43" fill="none" xmlns="http://www.w3.org/2000/svg"><g id="Logo"><path id="Vector" d="M78.732 8.735h6.032v23.981h-3.348V11.21l.1.031-5.642 21.476h-4.849l-5.654-21.495.093-.043v21.538h-3.366V8.736h6.032l5.382 21.699h-.162l5.382-21.7z" fill="#fff"/><path id="Vector_2" d="M87.486 32.716l6.405-24.03h5.542l6.343 24.03h-3.627l-5.512-21.799h.031l-5.542 21.8h-3.64zm3.72-6.094v-2.927h10.924v2.927H91.206z" fill="#fff"/><path id="Vector_3" d="M116.495 11.65h-10.651V8.734h14.551V11.5a12.585 12.585 0 00-3.038 3.161 18.205 18.205 0 00-2.021 4.043 28.183 28.183 0 00-1.24 4.575 44.246 44.246 0 00-.583 4.786 66.766 66.766 0 00-.161 4.65h-3.528c0-1.6.056-3.224.167-4.86.117-1.614.324-3.22.62-4.812a28.104 28.104 0 011.191-4.482 18.456 18.456 0 011.928-3.875 12.097 12.097 0 012.765-3.038z" fill="#fff"/><path id="Vector_4" d="M137.631 32.877l-6.727-24.142h2.207l6.039 22.537h-.18l5.983-22.537h2.213l-6.652 24.142h-2.883z" fill="#fff"/><path id="Vector_5" d="M147.752 24.93v-1.804h13.981l-.391.552v-.31a6.955 6.955 0 00-.713-3.1 5.82 5.82 0 00-2.077-2.325 5.968 5.968 0 00-3.304-.874 6.69 6.69 0 00-3.497.899 6.277 6.277 0 00-2.356 2.48 7.735 7.735 0 00-.849 3.682 7.919 7.919 0 00.837 3.72 6.097 6.097 0 002.35 2.48 6.886 6.886 0 003.527.887 8.234 8.234 0 002.579-.366 5.756 5.756 0 001.823-.967c.44-.358.813-.79 1.104-1.277.234-.391.385-.826.446-1.277h2.003a4.764 4.764 0 01-.62 1.959 6.595 6.595 0 01-1.544 1.86 7.584 7.584 0 01-2.48 1.388 10.014 10.014 0 01-3.391.534 8.681 8.681 0 01-4.446-1.141 8.097 8.097 0 01-3.056-3.144 10.151 10.151 0 010-9.3 8.186 8.186 0 013.1-3.143 8.58 8.58 0 014.433-1.14 8.163 8.163 0 014.395 1.159 7.777 7.777 0 012.858 3.1 9.639 9.639 0 011.011 4.433v1.004l-15.723.031z" fill="#fff"/><path id="Vector_6" d="M166.026 32.717V15.45h2.015v17.267h-2.015zm12.399 0V21.942a5.842 5.842 0 00-.508-2.53 3.831 3.831 0 00-1.569-1.692 5.436 5.436 0 00-2.715-.62 5.544 5.544 0 00-2.747.719 5.89 5.89 0 00-2.077 1.959 5.066 5.066 0 00-.787 2.784l-1.24-.46a6.348 6.348 0 011.017-3.527 7.49 7.49 0 012.666-2.48 7.154 7.154 0 013.509-.911 7.44 7.44 0 013.41.738 5.273 5.273 0 012.238 2.132 6.713 6.713 0 01.787 3.373v11.265l-1.984.025z" fill="#fff"/><path id="Vector_7" d="M189.317 32.977a5.406 5.406 0 01-1.42-.18 3.04 3.04 0 01-1.24-.62 3.108 3.108 0 01-.849-1.277 5.772 5.772 0 01-.31-2.065V17.241h-4.16v-1.773h2.988a4.88 4.88 0 00.67-.03.5.5 0 00.347-.162.796.796 0 00.13-.41V9.895h2.034v5.58h5.53v1.773h-5.53V28.11c-.039.788.11 1.574.434 2.294a1.661 1.661 0 001.63.824c.3.002.599-.025.893-.08.229-.036.454-.096.67-.18v1.76c-.248.09-.503.154-.763.193a6.35 6.35 0 01-1.054.056z" fill="#fff"/><path id="Vector_8" d="M200.669 33.008a6.5 6.5 0 01-3.063-.62 5.186 5.186 0 01-1.897-1.686 6.694 6.694 0 01-.948-2.22 9.991 9.991 0 01-.267-2.226V15.45h2.027v10.341a8.206 8.206 0 00.41 2.61 4.054 4.054 0 001.401 1.99 4.3 4.3 0 002.697.77 4.73 4.73 0 002.827-.88 6.19 6.19 0 001.909-2.239 6.017 6.017 0 00.695-2.784l1.24.503a7.381 7.381 0 01-.478 2.579 7.9 7.9 0 01-1.382 2.337 6.61 6.61 0 01-2.214 1.699 6.693 6.693 0 01-2.957.632zm5.791-.291V15.45h2.015v17.267h-2.015z" fill="#fff"/><path id="Vector_9" d="M211.805 32.717V15.45h2.015v5.09l-.713-.229a6.327 6.327 0 011.543-3.36 5.098 5.098 0 011.712-1.24 5.872 5.872 0 012.479-.478 6.396 6.396 0 011.674.18c.273.065.539.157.794.273l-.552 1.953a3.163 3.163 0 00-.663-.291 5.5 5.5 0 00-3.72.347 4.265 4.265 0 00-1.476 1.376 5.969 5.969 0 00-.799 1.798 7.345 7.345 0 00-.242 1.86v10.044l-2.052-.056z" fill="#fff"/><path id="Vector_10" d="M222.104 24.93v-1.805h13.986l-.39.552v-.31a6.984 6.984 0 00-.719-3.1 5.81 5.81 0 00-2.071-2.325 5.99 5.99 0 00-3.311-.874 6.704 6.704 0 00-3.497.9 6.325 6.325 0 00-2.356 2.479 7.732 7.732 0 00-.843 3.683 7.943 7.943 0 00.837 3.72 6.066 6.066 0 002.35 2.48 6.85 6.85 0 003.528.886 8.24 8.24 0 002.579-.366 5.718 5.718 0 001.816-.967 4.86 4.86 0 001.11-1.277c.234-.391.386-.826.447-1.277h1.996a4.831 4.831 0 01-.62 1.959 6.83 6.83 0 01-1.544 1.86 7.678 7.678 0 01-2.48 1.389 9.954 9.954 0 01-3.391.533 8.678 8.678 0 01-4.445-1.14 8.134 8.134 0 01-3.057-3.144 10.202 10.202 0 010-9.3 8.187 8.187 0 013.1-3.143 8.606 8.606 0 014.439-1.141 8.13 8.13 0 014.39 1.153 7.846 7.846 0 012.864 3.1 9.635 9.635 0 011.004 4.433v1.004l-15.722.038z" fill="#fff"/><path id="Vector_11" d="M246.406 33.026c-.958.01-1.914-.098-2.846-.322a6.974 6.974 0 01-2.207-.955 4.489 4.489 0 01-1.438-1.525 4.203 4.203 0 01-.527-2.077 2.111 2.111 0 010-.297v-.267h2.058v.484a2.69 2.69 0 001.37 2.318 6.987 6.987 0 003.67.819 9.501 9.501 0 002.623-.329 4.101 4.101 0 001.779-.992 2.209 2.209 0 00.62-1.606 2.327 2.327 0 00-1.358-2.25 15.258 15.258 0 00-3.992-1.129 20.343 20.343 0 01-2.542-.62 8.57 8.57 0 01-2.065-.923 4.236 4.236 0 01-1.388-1.408 3.903 3.903 0 01-.509-2.033c-.025-.94.3-1.854.912-2.567a5.721 5.721 0 012.449-1.612 9.997 9.997 0 013.391-.552 9.82 9.82 0 013.373.558c.96.325 1.817.9 2.479 1.668.639.789.969 1.782.93 2.796v.36h-2.021v-.292a2.662 2.662 0 00-.663-1.903 3.906 3.906 0 00-1.742-1.048 7.623 7.623 0 00-2.288-.335 9.134 9.134 0 00-2.313.292 4.342 4.342 0 00-1.798.917 2.146 2.146 0 00-.688 1.656 2.194 2.194 0 00.62 1.649 4.718 4.718 0 001.86 1.004c.906.285 1.83.51 2.765.676a23.87 23.87 0 012.654.62 8.51 8.51 0 012.077.918 3.813 3.813 0 011.86 3.434 4.066 4.066 0 01-.533 2.09 4.637 4.637 0 01-1.507 1.519 7.364 7.364 0 01-2.25.923c-.922.225-1.867.34-2.815.341z" fill="#fff"/><path id="Vector_12" d="M16.552 41.347C26.112 20.614 13.545 0 13.545 0c18.6 8.283 24.266 22.233 25.797 32.115-8.983 1.383-15.66 6.59-22.79 9.232z" fill="#62B6F3"/><path id="Vector_13" d="M10.602 42.829c-3.55.38-7.14.128-10.602-.744 6.404-6.144 15.996-18.023 13.547-32.4 0 0 7.334 18.053-2.945 33.144z" fill="#62B6F3"/></g></svg>