<svg width="24" height="25" fill="none" xmlns="http://www.w3.org/2000/svg"><path d="M16 11.443v-5h2v5h-2zm-5 6.9a2.722 2.722 0 01-1.437-.975A2.663 2.663 0 019 15.693v-9.25h2v11.9zm.75 4.1c-1.733 0-3.208-.608-4.425-1.825C6.108 19.402 5.5 17.927 5.5 16.193v-9.25c0-1.25.438-2.312 1.313-3.187.875-.874 1.938-1.312 3.187-1.313 1.25 0 2.312.437 3.188 1.313.876.876 1.313 1.939 1.312 3.187v7.5h-2v-7.5c-.017-.7-.262-1.291-.737-1.775-.475-.483-1.062-.725-1.763-.725-.7 0-1.292.242-1.775.725-.483.484-.724 1.075-.725 1.775v9.25c-.017 1.184.392 2.188 1.225 3.013.833.826 1.842 1.238 3.025 1.237.417 0 .813-.054 1.188-.162A3.91 3.91 0 0014 19.793v2.225c-.35.134-.713.238-1.088.313a5.849 5.849 0 01-1.162.112zm4.25-1v-3h-3v-2h3v-3h2v3h3v2h-3v3h-2z" fill="#62B6F3"/></svg>