<svg width="76" height="75" fill="none" xmlns="http://www.w3.org/2000/svg"><g clip-path="url(#clip0_234_340)" fill="#62B6F3"><path d="M64.822 37.503c0 17.24 2.424 31.155 5.427 31.155 3.004 0 5.427-13.916 5.427-31.155 0-17.24-2.424-31.156-5.427-31.156-3.002 0-5.426 13.916-5.426 31.156h-.001zm-10.691 0c0 15.514 2.182 28.04 4.885 28.04 2.702 0 4.884-12.524 4.884-28.04s-2.182-28.04-4.884-28.04c-2.703 0-4.885 12.524-4.885 28.04zm-10.691 0c0 13.79 1.939 24.924 4.341 24.924 2.403 0 4.342-11.133 4.342-24.924s-1.939-24.924-4.342-24.924c-2.402 0-4.341 11.133-4.341 24.924zm-10.69 0c0 12.067 1.697 21.808 3.799 21.808s3.799-9.741 3.799-21.808-1.697-21.809-3.8-21.809c-2.101 0-3.798 9.742-3.798 21.809zm-10.692 0c0 10.343 1.454 18.693 3.256 18.693 1.802 0 3.256-8.349 3.256-18.693 0-10.345-1.454-18.694-3.256-18.694-1.802 0-3.256 8.35-3.256 18.694zm-10.69-.001c0 8.62 1.213 15.578 2.714 15.578 1.5 0 2.713-6.958 2.713-15.578 0-8.619-1.212-15.577-2.713-15.577-1.501 0-2.714 6.958-2.714 15.577zm-10.693.001c0 6.895.97 12.462 2.17 12.462s2.17-5.567 2.17-12.462c0-6.896-.97-12.462-2.17-12.462S.675 30.607.675 37.503z"/></g><defs><clipPath id="clip0_234_340"><path fill="#fff" transform="translate(.676)" d="M0 0h75v75H0z"/></clipPath></defs></svg>