<svg width="71" height="65" fill="none" xmlns="http://www.w3.org/2000/svg"><path d="M24.117 28.443L55.776 7.04 32.334.826 3.841 20.089m20.276 8.354L3.02 22.851m21.098 5.592l13.399 32.158 1.488 3.573M3.841 20.089L.676 22.23l2.344.622m.821-2.762l23.443 6.214 14.888 35.73M3.02 22.852l14.887 35.731M3.02 22.852L34.678 1.446m4.327 62.727l3.166-2.14L70.663 42.77 60.242 17.76M39.005 64.174l-2.344-.621m23.58-45.794l-1.488-3.573m1.489 3.573L28.583 39.163 5.142 32.949m53.611-18.763L55.776 7.04m2.977 7.146l-3.165 2.14m13.587 22.87L37.517 60.6l-23.442-6.213m0 0L.675 22.23m13.4 32.157l1.489 3.573 2.343.621 16.41 4.35m11.02-3.038L30.45 24.163 7.007 17.949m41.496 39.804l-14.888-35.73-23.443-6.214M51.67 55.612l-14.89-35.73-23.44-6.215m41.495 39.804c-.643-1.546-13.824-33.178-14.887-35.73l-23.442-6.214M58 51.332l-14.888-35.73L19.67 9.388m41.496 39.803L46.28 13.461 22.837 7.247m41.495 39.804L49.444 11.32 26.002 5.106m41.496 39.805a1619153.9 1619153.9 0 00-11.91-28.585m0 0L52.61 9.18 29.17 2.966m26.419 13.36L27.096 35.59 3.652 29.376m64.033 6.248L36.027 57.028l-23.441-6.214m53.611-18.763L34.539 53.455 11.097 47.24m53.611-18.763C53.673 35.94 45.525 41.448 33.05 49.882L9.608 43.668M63.22 24.905L31.56 46.308 8.12 40.095m53.61-18.763L30.073 42.735 6.63 36.522m50.633-25.91L25.606 32.016 2.164 25.803m34.497 37.75l-2.344-.622m2.344.622l-14.887-35.73L53.432 6.418M34.317 62.93L19.429 27.2 51.087 5.797M20.252 59.204L5.364 23.472 37.022 2.069M22.596 59.824L7.708 24.094 39.367 2.69M24.94 60.446l-14.888-35.73L41.71 3.31M27.285 61.067l-14.888-35.73L44.055 3.933M29.628 61.689l-14.887-35.73L46.398 4.554M31.973 62.31L17.085 26.58 48.743 5.176" stroke="#62B6F3" stroke-width=".538" stroke-miterlimit="10" stroke-linecap="round"/></svg>