<svg width="76" height="76" fill="none" xmlns="http://www.w3.org/2000/svg"><path d="M39.246 61.728a6.351 6.351 0 015.484-3.17 6.335 6.335 0 016.329 6.328 6.335 6.335 0 01-6.328 6.328 6.335 6.335 0 01-6.329-6.328c0-1.11.292-2.203.844-3.158zm-16.312 3.158a6.335 6.335 0 016.328-6.328 6.352 6.352 0 015.485 3.17 6.33 6.33 0 01-5.485 9.486 6.335 6.335 0 01-6.328-6.328zm8.437-12.656c0-1.11.259-2.203.75-3.159 1.003-1.955 2.87-3.17 4.875-3.17s3.872 1.215 4.876 3.17c.49.956.75 2.049.75 3.159 0 3.49-2.525 6.328-5.626 6.328-3.101 0-5.625-2.838-5.625-6.328zm-20.874 3.987a6.283 6.283 0 012.948-3.841 6.32 6.32 0 013.156-.85 6.351 6.351 0 015.486 3.165 6.333 6.333 0 01-2.316 8.642 6.284 6.284 0 01-4.801.632 6.284 6.284 0 01-3.842-2.948 6.279 6.279 0 01-.632-4.8zM3.464 43.559a6.283 6.283 0 012.948-3.842 6.333 6.333 0 018.645 2.316 6.349 6.349 0 01-.002 6.334 6.327 6.327 0 01-2.314 2.31 6.284 6.284 0 01-4.802.631 6.285 6.285 0 01-3.842-2.947 6.28 6.28 0 01-.632-4.801v-.001zm15.447.003c.389-1.633 1.32-2.998 2.62-3.842a5.146 5.146 0 012.806-.85c2.007 0 3.875 1.214 4.877 3.166 1.002 1.952 1.001 4.38-.003 6.335a6.02 6.02 0 01-2.056 2.31c-2.687 1.744-6.133.705-7.684-2.317a6.975 6.975 0 01-.562-4.801l.002-.001zm-3.856-17a6.35 6.35 0 01.002 6.334 6.34 6.34 0 01-8.647 2.316 6.333 6.333 0 01-2.317-8.644 6.288 6.288 0 013.843-2.948 6.294 6.294 0 014.803.632 6.33 6.33 0 012.316 2.31zm1.543-3.16a6.317 6.317 0 01-3.155-.849 6.285 6.285 0 01-2.947-3.841 6.287 6.287 0 01.631-4.8 6.284 6.284 0 013.841-2.948 6.287 6.287 0 014.8.632 6.285 6.285 0 012.947 3.841 6.287 6.287 0 01-.631 4.8 6.35 6.35 0 01-5.485 3.165zm6.288.218a5.072 5.072 0 011.465-.218c.975 0 1.937.287 2.804.85a6.017 6.017 0 012.056 2.309c1.004 1.955 1.005 4.381.003 6.333s-2.871 3.164-4.878 3.164c-.98 0-1.951-.293-2.806-.849-1.301-.845-2.233-2.208-2.621-3.84a6.976 6.976 0 01.562-4.8c.751-1.464 1.964-2.51 3.415-2.948zM34.747 13.2a6.351 6.351 0 01-5.485 3.17 6.335 6.335 0 01-6.328-6.328 6.335 6.335 0 016.328-6.328 6.336 6.336 0 016.328 6.329c0 1.11-.291 2.203-.843 3.159V13.2zm16.312-3.157a6.335 6.335 0 01-6.328 6.328 6.352 6.352 0 01-5.485-3.17 6.33 6.33 0 015.484-9.487 6.336 6.336 0 016.329 6.329zm-8.438 12.656c0 1.11-.259 2.203-.75 3.158-1.003 1.956-2.87 3.17-4.875 3.17s-3.872-1.215-4.875-3.17a6.95 6.95 0 01-.75-3.158c0-3.49 2.524-6.328 5.625-6.328s5.625 2.838 5.625 6.328zm20.874-3.987a6.283 6.283 0 01-2.947 3.841 6.32 6.32 0 01-3.157.849 6.351 6.351 0 01-5.486-3.164 6.333 6.333 0 015.47-9.492c.55 0 1.103.072 1.647.218a6.284 6.284 0 013.842 2.947 6.279 6.279 0 01.632 4.8v.001zm7.032 12.658a6.284 6.284 0 01-2.948 3.842 6.336 6.336 0 01-8.644-2.316 6.35 6.35 0 01.002-6.334 6.328 6.328 0 012.314-2.31 6.291 6.291 0 014.802-.632 6.285 6.285 0 013.842 2.948 6.28 6.28 0 01.632 4.802zm-25.748-4.812a6.02 6.02 0 012.057-2.31 5.123 5.123 0 012.804-.846c1.946 0 3.84 1.135 4.881 3.163a6.973 6.973 0 01.562 4.802c-.389 1.632-1.32 2.997-2.62 3.842a5.147 5.147 0 01-2.807.85c-2.007 0-3.875-1.214-4.878-3.166-1.002-1.953-1.001-4.38.003-6.335h-.002zm14.159 21.809a6.35 6.35 0 01-.003-6.334 6.339 6.339 0 018.647-2.316 6.334 6.334 0 012.317 8.644 6.289 6.289 0 01-3.843 2.948 6.294 6.294 0 01-4.804-.632 6.33 6.33 0 01-2.314-2.31zm-1.544 3.16c1.103 0 2.194.293 3.156.849a6.285 6.285 0 012.947 3.841 6.288 6.288 0 01-.632 4.8 6.284 6.284 0 01-3.841 2.948 6.286 6.286 0 01-4.8-.632 6.285 6.285 0 01-2.947-3.841 6.288 6.288 0 01.631-4.8 6.35 6.35 0 015.485-3.165h.001zM44.78 48.368c-1.003-1.954-1.004-4.381-.002-6.333s2.872-3.164 4.878-3.164c.981 0 1.952.293 2.806.848 1.302.846 2.233 2.21 2.621 3.842a6.977 6.977 0 01-.561 4.8c-.752 1.464-1.965 2.51-3.416 2.948-1.452.437-2.968.213-4.269-.632a6.017 6.017 0 01-2.056-2.31v.002z" fill="#62B6F3"/></svg>