<svg width="300" height="46" viewBox="0 0 300 46" fill="none" xmlns="http://www.w3.org/2000/svg">
<path d="M17.2487 43.3862C27.211 21.882 14.1152 0.5 14.1152 0.5C33.4972 9.09139 39.4022 23.5604 40.998 33.8109C31.6365 35.2449 24.6784 40.6467 17.2487 43.3862Z" fill="#62B6F3"/>
<path d="M11.0477 44.9231C7.34826 45.317 3.60794 45.0558 0 44.1514C6.67385 37.7786 16.6685 25.4575 14.1165 10.5447C14.1165 10.5447 21.7595 29.2709 11.0477 44.9231Z" fill="#62B6F3"/>
<path d="M79.0342 11.7867H85.3896V36.8855H81.8632V14.3744L81.9685 14.407L76.021 36.8855H70.9156L64.9155 14.394L65.0207 14.3417V36.8855H61.4746V11.7867H67.83L73.5012 34.5004H73.3301L79.0342 11.7867Z" fill="white"/>
<path d="M88.3633 36.8856L95.1134 11.7346H100.956L107.633 36.8791H103.811L98.0082 14.0674H98.0411L92.1989 36.8856H88.3633ZM92.2713 30.5015V27.4368H103.785V30.5015H92.2713Z" fill="white"/>
<path d="M119.069 14.8318V14.8645H107.852V11.7867H123.181V14.6815C121.911 15.6028 120.845 16.7006 119.977 17.9879C119.108 19.2752 118.398 20.6866 117.845 22.2157C117.293 23.7447 116.865 25.3457 116.569 27.0054C116.273 28.6652 116.069 30.338 115.95 32.0173C115.839 33.6967 115.779 35.3172 115.779 36.8855H112.062C112.062 35.2061 112.121 33.5137 112.24 31.7952C112.358 30.0766 112.569 28.4038 112.871 26.7571C113.174 25.1104 113.589 23.5487 114.121 22.0719C114.654 20.5951 115.325 19.236 116.135 17.9944C116.944 16.7594 117.924 15.7009 119.062 14.8318H119.069Z" fill="white"/>
<path d="M134.247 36.8855L141.425 11.7018H144.694L151.82 36.8855H149.609L143.03 13.1525H143.063L136.451 36.8855H134.24H134.247ZM137.536 29.8937V28.0379H148.583V29.8937H137.536Z" fill="white"/>
<path d="M153.674 36.8855V18.8113H155.799V36.879H153.674V36.8855ZM166.766 36.8855V25.6071C166.766 24.6008 166.589 23.7187 166.227 22.9607C165.865 22.2027 165.319 21.6146 164.575 21.1899C163.832 20.7651 162.878 20.5495 161.713 20.5495C160.687 20.5495 159.72 20.8043 158.819 21.3075C157.917 21.8106 157.187 22.4967 156.634 23.3593C156.082 24.2218 155.805 25.1889 155.805 26.2671L154.523 25.7901C154.523 24.4179 154.878 23.1894 155.595 22.0981C156.305 21.0069 157.246 20.1444 158.404 19.5105C159.562 18.8767 160.792 18.5565 162.095 18.5565C163.477 18.5565 164.674 18.8179 165.694 19.3341C166.714 19.8503 167.496 20.5952 168.049 21.5623C168.602 22.5294 168.878 23.7121 168.878 25.0909V36.879H166.773L166.766 36.8855Z" fill="white"/>
<path d="M183.412 36.121C184.346 36.1864 185.175 36.3563 185.899 36.6307C186.622 36.9052 187.182 37.2972 187.583 37.8134C187.984 38.3297 188.188 38.9962 188.188 39.813C188.188 40.7213 187.872 41.5315 187.247 42.2438C186.622 42.956 185.655 43.5245 184.353 43.9362C183.05 44.3479 181.392 44.557 179.366 44.557C176.556 44.557 174.458 44.1388 173.063 43.2958C171.668 42.4529 170.971 41.3486 170.971 39.9763C170.971 39.4993 171.023 39.0877 171.135 38.7413C171.247 38.395 171.365 38.1206 171.504 37.918L173.523 38.2251C173.418 38.3754 173.326 38.5845 173.234 38.8655C173.142 39.1465 173.096 39.4667 173.096 39.8456C173.096 40.8519 173.648 41.6034 174.747 42.0935C175.846 42.5836 177.431 42.8253 179.504 42.8253C181.07 42.8253 182.339 42.6947 183.313 42.4398C184.287 42.185 185.01 41.8386 185.478 41.3943C185.945 40.95 186.182 40.4664 186.182 39.9306C186.182 39.1138 185.846 38.578 185.182 38.3231C184.51 38.0683 183.681 37.8984 182.688 37.82L175.754 37.3299C174.635 37.2384 173.734 36.9182 173.05 36.3693C172.365 35.8204 172.023 35.1213 172.023 34.2849C172.023 33.7752 172.155 33.2982 172.412 32.8538C172.668 32.4095 172.971 32.0435 173.319 31.7495C173.668 31.4554 173.977 31.2725 174.254 31.2071L175.951 32.0239C175.642 32.0827 175.267 32.2853 174.819 32.6382C174.372 32.991 174.155 33.4223 174.155 33.932C174.155 34.3829 174.346 34.7619 174.727 35.0559C175.109 35.35 175.806 35.5395 176.826 35.6179L183.418 36.1276L183.412 36.121ZM186.103 18.8113H188.109L187.353 25.9731C187.214 27.3126 186.833 28.528 186.208 29.6127C185.576 30.704 184.708 31.5665 183.589 32.2069C182.471 32.8473 181.096 33.1675 179.477 33.1675C177.859 33.1675 176.366 32.8407 175.188 32.2004C174.004 31.5535 173.102 30.6844 172.484 29.5866C171.859 28.4953 171.55 27.2734 171.55 25.9208C171.55 24.5682 171.879 23.307 172.543 22.1962C173.208 21.0853 174.122 20.2032 175.3 19.5432C176.477 18.8832 177.833 18.5565 179.379 18.5565C180.806 18.5565 182.037 18.8113 183.063 19.321C184.089 19.8307 184.899 20.4645 185.484 21.2095C186.07 21.9609 186.405 22.6928 186.484 23.4181H185.714L186.109 18.8048L186.103 18.8113ZM179.471 31.2855C180.695 31.2855 181.741 31.0634 182.603 30.6125C183.471 30.1616 184.135 29.5343 184.596 28.7241C185.057 27.9138 185.287 26.9598 185.287 25.8554C185.287 24.7511 185.057 23.869 184.596 23.0587C184.135 22.2484 183.471 21.6081 182.603 21.1441C181.734 20.6802 180.695 20.4449 179.484 20.4449C178.273 20.4449 177.313 20.6802 176.425 21.1572C175.537 21.6342 174.852 22.2811 174.359 23.1044C173.866 23.9278 173.622 24.8622 173.622 25.9012C173.622 26.9402 173.852 27.9073 174.313 28.7175C174.773 29.5278 175.444 30.1616 176.32 30.606C177.195 31.0503 178.241 31.279 179.464 31.279L179.471 31.2855Z" fill="white"/>
<path d="M190.549 28.737V26.8486H205.28L204.872 27.4301V27.0903C204.872 25.9207 204.622 24.836 204.115 23.8231C203.609 22.8103 202.885 22 201.931 21.3923C200.977 20.7781 199.813 20.471 198.444 20.471C197.076 20.471 195.826 20.7846 194.76 21.4119C193.694 22.0392 192.872 22.9083 192.273 24.0126C191.674 25.117 191.385 26.4042 191.385 27.8679C191.385 29.3317 191.681 30.6385 192.267 31.7559C192.852 32.8733 193.681 33.7424 194.74 34.3566C195.799 34.9709 197.043 35.2845 198.457 35.2845C199.497 35.2845 200.405 35.1538 201.175 34.899C201.944 34.6441 202.583 34.3044 203.096 33.8861C203.602 33.4679 203.99 33.0236 204.26 32.5531C204.53 32.0826 204.688 31.6383 204.734 31.2201H206.839C206.793 31.8866 206.576 32.5727 206.194 33.2719C205.813 33.9711 205.267 34.618 204.569 35.2192C203.872 35.8203 202.997 36.3039 201.964 36.6763C200.931 37.0423 199.74 37.2318 198.392 37.2318C196.635 37.2318 195.069 36.8332 193.707 36.0425C192.345 35.2518 191.266 34.1541 190.484 32.7492C189.701 31.3443 189.312 29.7368 189.312 27.9072C189.312 26.0775 189.707 24.4504 190.497 23.0521C191.286 21.6537 192.365 20.5559 193.734 19.7587C195.102 18.9615 196.661 18.5695 198.411 18.5695C200.161 18.5695 201.734 18.9746 203.036 19.7783C204.339 20.5821 205.346 21.6733 206.05 23.0521C206.754 24.4308 207.109 25.973 207.109 27.6915C207.109 27.8418 207.109 28.0248 207.102 28.2535C207.102 28.4822 207.089 28.6455 207.076 28.7501H190.543L190.549 28.737Z" fill="white"/>
<path d="M212.096 10.2904V36.8855H210.004V10.2904H212.096Z" fill="white"/>
<path d="M222.386 37.2055C221.287 37.2055 220.287 37.0945 219.386 36.8658C218.485 36.6371 217.708 36.3103 217.057 35.8725C216.406 35.4347 215.899 34.9054 215.544 34.2716C215.182 33.6443 214.998 32.919 214.985 32.1022C214.971 31.9976 214.965 31.8931 214.965 31.7885V31.5075H217.103V32.0172C217.136 33.0627 217.623 33.8665 218.55 34.4415C219.478 35.0165 220.768 35.2975 222.412 35.2975C223.465 35.2975 224.386 35.1799 225.182 34.9512C225.978 34.7159 226.603 34.3696 227.057 33.9122C227.511 33.4548 227.741 32.8928 227.741 32.2394C227.741 31.1416 227.268 30.3509 226.314 29.8805C225.36 29.41 223.958 29.0179 222.11 28.6977C221.149 28.5409 220.254 28.3318 219.425 28.077C218.596 27.8221 217.873 27.5019 217.248 27.1099C216.623 26.7178 216.136 26.2277 215.781 25.6396C215.425 25.0515 215.248 24.3393 215.248 23.5159C215.248 22.4639 215.57 21.5621 216.208 20.8303C216.846 20.0919 217.708 19.5299 218.787 19.1444C219.866 18.7589 221.057 18.5628 222.36 18.5628C223.662 18.5628 224.833 18.7589 225.912 19.1509C226.991 19.543 227.86 20.1246 228.505 20.8956C229.156 21.6667 229.478 22.6403 229.478 23.823V24.1955H227.353V23.8884C227.353 23.0585 227.116 22.3985 226.649 21.8954C226.182 21.3988 225.57 21.0328 224.814 20.7976C224.057 20.5624 223.254 20.4513 222.399 20.4513C221.544 20.4513 220.741 20.5558 219.965 20.7584C219.189 20.961 218.557 21.2812 218.07 21.719C217.583 22.1568 217.34 22.7318 217.34 23.4441C217.34 24.1563 217.57 24.7313 218.024 25.1691C218.478 25.6069 219.123 25.9598 219.958 26.2212C220.794 26.4891 221.761 26.7243 222.873 26.9269C223.886 27.1099 224.82 27.3255 225.662 27.5803C226.505 27.8352 227.241 28.1554 227.853 28.5409C228.472 28.9264 228.952 29.41 229.294 29.9981C229.636 30.5796 229.807 31.2919 229.807 32.1348C229.807 32.9778 229.616 33.69 229.241 34.3239C228.866 34.9512 228.334 35.487 227.656 35.9117C226.978 36.343 226.182 36.6697 225.281 36.8788C224.38 37.0879 223.399 37.2055 222.353 37.2055H222.386Z" fill="white"/>
<path d="M256.953 28.3778C256.953 29.3645 256.768 30.3708 256.407 31.4032C256.038 32.4356 255.492 33.3897 254.762 34.2718C254.032 35.154 253.111 35.8597 252.005 36.3955C250.9 36.9313 249.604 37.2058 248.117 37.2058C246.064 37.2058 244.308 36.6634 242.86 35.5722C241.406 34.4809 240.308 32.9715 239.544 31.0307C238.788 29.09 238.406 26.8618 238.406 24.346C238.406 21.8303 238.788 19.589 239.544 17.6613C240.301 15.7337 241.406 14.2307 242.86 13.146C244.308 12.0613 246.064 11.519 248.117 11.519C249.841 11.519 251.314 11.8783 252.532 12.5971C253.749 13.3159 254.709 14.2307 255.426 15.3481C256.137 16.459 256.597 17.6025 256.808 18.7656C256.913 19.3015 256.959 19.8111 256.959 20.2947H254.834C254.834 19.9876 254.808 19.6282 254.749 19.223C254.597 18.2233 254.249 17.2888 253.696 16.4067C253.143 15.5246 252.4 14.8123 251.466 14.2569C250.538 13.7014 249.42 13.4205 248.117 13.4205C246.597 13.4205 245.275 13.8517 244.143 14.7078C243.012 15.5638 242.137 16.8053 241.505 18.4258C240.873 20.0464 240.564 22.0198 240.564 24.346C240.564 26.6723 240.88 28.6391 241.505 30.2728C242.137 31.9129 243.012 33.161 244.143 34.017C245.275 34.873 246.597 35.3043 248.117 35.3043C249.203 35.3043 250.163 35.1017 250.992 34.69C251.828 34.2849 252.525 33.7425 253.097 33.0629C253.67 32.3899 254.097 31.645 254.393 30.8282C254.689 30.0114 254.828 29.1946 254.828 28.3778H256.953Z" fill="white"/>
<path d="M261.592 10.2904V36.8855H259.5V10.2904H261.592Z" fill="white"/>
<path d="M271.821 37.1926C270.519 37.1926 269.446 36.9639 268.591 36.5131C267.742 36.0622 267.078 35.4741 266.597 34.7553C266.117 34.0365 265.782 33.2589 265.597 32.4356C265.407 31.6057 265.314 30.8281 265.314 30.1028V18.8113H267.453V29.6323C267.453 30.5994 267.597 31.5077 267.88 32.3637C268.163 33.2197 268.657 33.9124 269.354 34.4482C270.051 34.984 270.999 35.2454 272.196 35.2454C273.328 35.2454 274.321 34.9383 275.177 34.324C276.032 33.7098 276.703 32.9322 277.19 31.9847C277.677 31.0372 277.92 30.0636 277.92 29.0704L279.223 29.5996C279.223 30.5079 279.052 31.4031 278.716 32.2984C278.381 33.187 277.894 34.0038 277.262 34.7488C276.63 35.4937 275.854 36.0818 274.933 36.5261C274.012 36.9705 272.979 37.1926 271.821 37.1926ZM277.92 36.8855V18.8113H280.045V36.879H277.92V36.8855Z" fill="white"/>
<path d="M283.658 36.8855V10.2904H285.796V36.8855H283.658ZM292.053 37.2057C290.658 37.2057 289.369 36.8724 288.185 36.1994C286.994 35.5329 286.04 34.6246 285.316 33.4745C284.592 32.331 284.231 31.0437 284.231 29.6127V29.4624L285.803 29.4297V29.5669C285.803 30.5863 286.079 31.5273 286.632 32.3898C287.185 33.2523 287.915 33.9385 288.823 34.4481C289.731 34.9578 290.718 35.2127 291.777 35.2127C293.533 35.2127 294.981 34.5919 296.119 33.3504C297.257 32.1088 297.823 30.2726 297.823 27.8484C297.823 25.4241 297.257 23.5749 296.126 22.3333C294.994 21.0983 293.547 20.4775 291.777 20.4775C290.718 20.4775 289.731 20.7324 288.823 21.2421C287.915 21.7518 287.185 22.4313 286.632 23.2808C286.079 24.1303 285.803 25.0712 285.803 26.1037L284.231 26.0514C284.231 24.6204 284.592 23.3396 285.316 22.2092C286.04 21.0722 287 20.1835 288.185 19.5301C289.369 18.8766 290.665 18.5499 292.053 18.5499C293.527 18.5499 294.862 18.9093 296.073 19.6281C297.277 20.3469 298.231 21.3989 298.941 22.7842C299.652 24.1695 300.001 25.8554 300.001 27.8353C300.001 29.8152 299.652 31.5469 298.948 32.9387C298.244 34.3305 297.297 35.3891 296.099 36.1144C294.902 36.8332 293.553 37.1926 292.053 37.1926V37.2057Z" fill="white"/>
</svg>
