<svg width="276" height="44" viewBox="0 0 276 44" fill="none" xmlns="http://www.w3.org/2000/svg">
<path d="M75.7195 13.8916H81.4542V36.6938H78.2723V16.2425L78.3672 16.2722L73.0006 36.6938H68.3939L62.9857 16.2603L63.0807 16.2128V36.6938H59.8809V13.8916H65.6156L70.7328 34.527H70.5785L75.7255 13.8916H75.7195Z" fill="white"/>
<path d="M84.1387 36.6939L90.2296 13.8501H95.5013L101.527 36.6939H98.0777L92.8358 15.9635H92.8655L87.5938 36.6939H84.1328H84.1387ZM87.6651 30.8939V28.1097H98.054V30.8939H87.6651Z" fill="white"/>
<path d="M111.844 16.658V16.6877H101.723V13.8916H115.555V16.5215C114.409 17.3585 113.447 18.3559 112.664 19.5254C111.88 20.6949 111.239 21.9772 110.74 23.3663C110.242 24.7555 109.856 26.2099 109.589 27.7178C109.321 29.2257 109.137 30.7454 109.031 32.2711C108.93 33.7968 108.876 35.2691 108.876 36.6938H105.522C105.522 35.1682 105.575 33.6306 105.682 32.0693C105.789 30.508 105.979 28.9882 106.252 27.4922C106.525 25.9962 106.899 24.5774 107.38 23.2357C107.861 21.8941 108.467 20.6593 109.197 19.5313C109.927 18.4093 110.811 17.4476 111.839 16.658H111.844Z" fill="white"/>
<path d="M142.524 28.9647C142.524 29.8611 142.358 30.7753 142.031 31.7133C141.699 32.6513 141.206 33.518 140.547 34.3195C139.888 35.1209 139.057 35.762 138.06 36.2488C137.063 36.7356 135.893 36.985 134.551 36.985C132.699 36.985 131.114 36.4922 129.808 35.5008C128.496 34.5094 127.505 33.1381 126.816 31.3749C126.133 29.6118 125.789 27.5874 125.789 25.3019C125.789 23.0163 126.133 20.9801 126.816 19.2288C127.499 17.4775 128.496 16.1121 129.808 15.1266C131.114 14.1412 132.699 13.6484 134.551 13.6484C136.107 13.6484 137.437 13.9749 138.535 14.628C139.633 15.281 140.5 16.1121 141.147 17.1272C141.788 18.1365 142.204 19.1754 142.394 20.2321C142.489 20.7189 142.53 21.1819 142.53 21.6212H140.613C140.613 21.3422 140.589 21.0157 140.535 20.6476C140.399 19.7393 140.084 18.8904 139.586 18.089C139.087 17.2875 138.416 16.6405 137.573 16.1358C136.736 15.6312 135.727 15.376 134.551 15.376C133.18 15.376 131.987 15.7678 130.966 16.5455C129.945 17.3231 129.155 18.4511 128.585 19.9234C128.015 21.3956 127.736 23.1884 127.736 25.3019C127.736 27.4153 128.021 29.2022 128.585 30.6863C129.155 32.1764 129.945 33.3102 130.966 34.0879C131.987 34.8656 133.18 35.2574 134.551 35.2574C135.531 35.2574 136.398 35.0734 137.146 34.6994C137.9 34.3313 138.529 33.8386 139.045 33.2212C139.562 32.6097 139.948 31.933 140.215 31.1909C140.482 30.4488 140.607 29.7068 140.607 28.9647H142.524Z" fill="white"/>
<path d="M152.076 36.9728C150.467 36.9728 149.048 36.6047 147.807 35.8686C146.567 35.1324 145.605 34.1173 144.904 32.8291C144.204 31.5408 143.854 30.0864 143.854 28.4716C143.854 26.8569 144.204 25.3965 144.904 24.1261C145.605 22.8616 146.572 21.8643 147.807 21.14C149.042 20.4217 150.467 20.0596 152.076 20.0596C153.684 20.0596 155.103 20.4217 156.344 21.14C157.579 21.8643 158.546 22.8557 159.253 24.1261C159.953 25.3965 160.304 26.8391 160.304 28.4716C160.304 30.1042 159.953 31.5408 159.253 32.8291C158.552 34.1173 157.585 35.1324 156.344 35.8686C155.103 36.6047 153.684 36.9728 152.076 36.9728ZM152.076 35.2215C153.31 35.2215 154.403 34.9306 155.347 34.3547C156.291 33.7789 157.027 32.9775 157.567 31.9564C158.101 30.9353 158.368 29.7717 158.368 28.4657C158.368 27.1597 158.101 25.9902 157.567 24.9869C157.033 23.9896 156.291 23.2059 155.347 22.6479C154.403 22.0839 153.316 21.8049 152.076 21.8049C150.835 21.8049 149.76 22.0839 148.816 22.6479C147.867 23.2119 147.125 23.9896 146.59 24.9869C146.056 25.9842 145.789 27.1478 145.789 28.4657C145.789 29.7836 146.056 30.9412 146.59 31.9564C147.125 32.9775 147.867 33.773 148.816 34.3547C149.766 34.9306 150.853 35.2215 152.076 35.2215Z" fill="white"/>
<path d="M162.744 36.694V20.2795H164.662V36.694H162.744ZM172.795 36.694V26.2575C172.795 25.8539 172.765 25.4027 172.7 24.904C172.64 24.4053 172.498 23.9245 172.272 23.4614C172.047 22.9984 171.702 22.6125 171.227 22.3098C170.753 22.007 170.099 21.8526 169.262 21.8526C168.384 21.8526 167.654 22.0248 167.066 22.3691C166.478 22.7134 166.009 23.1587 165.653 23.7048C165.297 24.251 165.042 24.8328 164.887 25.4502C164.733 26.0676 164.656 26.6494 164.656 27.1955L163.51 26.7503C163.51 25.563 163.759 24.4647 164.252 23.4496C164.745 22.4344 165.451 21.6152 166.359 20.9859C167.268 20.3566 168.354 20.042 169.613 20.042C170.871 20.042 171.791 20.2795 172.533 20.7603C173.276 21.2412 173.822 21.912 174.166 22.7669C174.51 23.6277 174.683 24.6369 174.683 25.7886V36.688H172.783L172.795 36.694ZM182.81 36.694V26.1804C182.81 25.7886 182.786 25.3493 182.732 24.8565C182.679 24.3638 182.542 23.8948 182.323 23.4436C182.103 22.9925 181.747 22.6125 181.254 22.3098C180.767 22.007 180.085 21.8526 179.206 21.8526C178.328 21.8526 177.597 22.0248 177.01 22.3632C176.422 22.7016 175.959 23.1409 175.62 23.6692C175.282 24.1976 175.039 24.7556 174.902 25.3374C174.766 25.9192 174.694 26.4475 174.694 26.9224L173.549 26.5069C173.549 25.4027 173.786 24.3638 174.267 23.3783C174.748 22.3929 175.436 21.5914 176.333 20.974C177.229 20.3566 178.31 20.0479 179.58 20.0479C180.714 20.0479 181.658 20.2676 182.418 20.695C183.178 21.1284 183.748 21.7458 184.133 22.5472C184.519 23.3486 184.715 24.3282 184.715 25.4858V36.694H182.816H182.81Z" fill="white"/>
<path d="M187.963 36.694V20.2795H189.88V36.694H187.963ZM198.008 36.694V26.2575C198.008 25.8539 197.978 25.4027 197.913 24.904C197.853 24.4053 197.711 23.9245 197.485 23.4614C197.26 22.9984 196.915 22.6125 196.44 22.3098C195.965 22.007 195.312 21.8526 194.475 21.8526C193.597 21.8526 192.866 22.0248 192.279 22.3691C191.691 22.7134 191.222 23.1587 190.866 23.7048C190.51 24.251 190.254 24.8328 190.1 25.4502C189.946 26.0676 189.869 26.6494 189.869 27.1955L188.723 26.7503C188.723 25.563 188.972 24.4647 189.465 23.4496C189.958 22.4344 190.664 21.6152 191.572 20.9859C192.481 20.3566 193.567 20.042 194.826 20.042C196.084 20.042 197.004 20.2795 197.746 20.7603C198.488 21.2412 199.035 21.912 199.379 22.7669C199.723 23.6277 199.895 24.6369 199.895 25.7886V36.688H197.996L198.008 36.694ZM208.028 36.694V26.1804C208.028 25.7886 208.005 25.3493 207.951 24.8565C207.898 24.3638 207.761 23.8948 207.542 23.4436C207.322 22.9925 206.966 22.6125 206.473 22.3098C205.986 22.007 205.304 21.8526 204.425 21.8526C203.546 21.8526 202.816 22.0248 202.228 22.3632C201.641 22.7016 201.178 23.1409 200.839 23.6692C200.501 24.1976 200.257 24.7556 200.121 25.3374C199.984 25.9192 199.913 26.4475 199.913 26.9224L198.767 26.5069C198.767 25.4027 199.005 24.3638 199.486 23.3783C199.967 22.3929 200.655 21.5914 201.552 20.974C202.448 20.3566 203.529 20.0479 204.799 20.0479C205.933 20.0479 206.877 20.2676 207.637 20.695C208.396 21.1284 208.966 21.7458 209.352 22.5472C209.738 23.3486 209.934 24.3282 209.934 25.4858V36.694H208.034H208.028Z" fill="white"/>
<path d="M218.945 36.9728C217.77 36.9728 216.802 36.7651 216.031 36.3554C215.265 35.9458 214.665 35.4115 214.232 34.7585C213.798 34.1055 213.496 33.399 213.329 32.651C213.157 31.8971 213.074 31.1907 213.074 30.5317V20.2852H215.004V30.1161C215.004 30.9947 215.134 31.8199 215.389 32.5976C215.645 33.3753 216.09 34.0046 216.719 34.4914C217.349 34.9782 218.203 35.2156 219.284 35.2156C220.305 35.2156 221.201 34.9366 221.973 34.3786C222.745 33.8205 223.35 33.1141 223.79 32.2533C224.229 31.3925 224.449 30.5079 224.449 29.6056L225.624 30.0865C225.624 30.9116 225.47 31.7249 225.167 32.5382C224.864 33.3456 224.425 34.0877 223.855 34.7644C223.285 35.4412 222.585 35.9755 221.753 36.3792C220.922 36.7829 219.99 36.9847 218.945 36.9847V36.9728ZM224.449 36.6938V20.2793H226.366V36.6938H224.449Z" fill="white"/>
<path d="M229.625 36.694V20.2795H231.543V36.694H229.625ZM241.433 36.694V26.4475C241.433 25.5333 241.272 24.7319 240.946 24.0432C240.619 23.3546 240.127 22.8203 239.456 22.4344C238.785 22.0486 237.924 21.8526 236.874 21.8526C235.947 21.8526 235.075 22.0842 234.261 22.5413C233.448 22.9984 232.789 23.6217 232.291 24.4054C231.792 25.189 231.543 26.0676 231.543 27.0471L230.385 26.6137C230.385 25.3671 230.705 24.251 231.353 23.2596C231.994 22.2682 232.843 21.4846 233.887 20.9087C234.932 20.3329 236.042 20.042 237.218 20.042C238.465 20.042 239.545 20.2795 240.465 20.7484C241.385 21.2174 242.092 21.8942 242.59 22.7728C243.089 23.6514 243.338 24.7259 243.338 25.9785V36.688H241.439L241.433 36.694Z" fill="white"/>
<path d="M247.488 16.1358C247.084 16.1358 246.74 16.0171 246.449 15.7855C246.158 15.554 246.016 15.2394 246.016 14.8476C246.016 14.4558 246.158 14.1589 246.449 13.9274C246.74 13.6959 247.084 13.5771 247.488 13.5771C247.892 13.5771 248.218 13.6959 248.509 13.9274C248.8 14.1589 248.942 14.4676 248.942 14.8476C248.942 15.2275 248.8 15.5481 248.509 15.7855C248.218 16.0171 247.88 16.1358 247.488 16.1358ZM246.532 36.694V20.2795H248.42V36.694H246.532Z" fill="white"/>
<path d="M257.439 36.9373C256.976 36.9373 256.524 36.8779 256.085 36.7651C255.646 36.6523 255.254 36.4505 254.91 36.1537C254.565 35.8628 254.292 35.4531 254.096 34.9426C253.9 34.4261 253.8 33.7731 253.8 32.9776V21.9594H249.84V20.2734H252.683C252.951 20.2734 253.164 20.2616 253.319 20.2437C253.473 20.2259 253.586 20.1725 253.651 20.0894C253.716 20.0063 253.758 19.8757 253.776 19.7035C253.794 19.5314 253.8 19.288 253.8 18.9793V14.978H255.717V20.2794H260.971V21.9653H255.717V32.289C255.717 33.2151 255.854 33.9453 256.127 34.4677C256.4 34.9901 256.916 35.2572 257.682 35.2572C257.973 35.2572 258.252 35.2335 258.531 35.1801C258.81 35.1266 259.018 35.0732 259.166 35.0079V36.6761C258.994 36.7473 258.751 36.8126 258.442 36.8601C258.133 36.9076 257.801 36.9373 257.439 36.9373Z" fill="white"/>
<path d="M263.256 43.5565C262.876 43.5565 262.525 43.5328 262.211 43.4853C261.896 43.4378 261.7 43.3963 261.617 43.3547V41.6687C261.754 41.7281 261.967 41.7875 262.276 41.829C262.579 41.8765 262.87 41.9002 263.149 41.9002C263.861 41.9002 264.449 41.74 264.918 41.4134C265.387 41.0869 265.779 40.6595 266.087 40.1252C266.396 39.5909 266.657 39.0092 266.877 38.3918L267.447 36.7355L261.682 20.2734H263.689L268.634 34.9723H268.355L273.241 20.2734H275.206L268.961 38.2968C268.652 39.1932 268.278 40.0421 267.851 40.8495C267.417 41.6509 266.841 42.3039 266.117 42.8026C265.393 43.3013 264.443 43.5506 263.256 43.5506V43.5565Z" fill="white"/>
<path d="M15.8499 39.6918C25.0041 19.846 12.9707 0.101074 12.9707 0.101074C30.7922 8.03822 36.2063 21.3895 37.6726 30.8523C29.0706 32.1762 22.671 37.1569 15.844 39.6918H15.8499Z" fill="#32ACEF"/>
<path d="M10.1515 41.1048C6.3521 41.556 2.79017 41.0751 0 40.3984C6.13244 34.5153 15.3163 23.1409 12.9713 9.37402C12.9713 9.37402 19.9943 26.6553 10.1515 41.1048Z" fill="#32ACEF"/>
</svg>
