<svg width="254" height="43" viewBox="0 0 254 43" fill="none" xmlns="http://www.w3.org/2000/svg">
<g id="Logo">
<path id="Vector" d="M78.7318 8.73535H84.7642V32.7163H81.4163V11.2091L81.5155 11.2401L75.8737 32.7163H71.0254L65.3712 11.2215L65.4642 11.1781V32.7163H62.0977V8.73535H68.1301L73.5116 30.4348H73.3504L78.7318 8.73535Z" fill="white"/>
<path id="Vector_2" d="M87.4863 32.7161L93.8907 8.68555H99.4334L105.776 32.7161H102.149L96.6373 10.9175H96.6683L91.1256 32.7161H87.4863ZM91.2062 26.6217V23.6954H102.13V26.6217H91.2062Z" fill="white"/>
<path id="Vector_3" d="M116.495 11.6492H105.844V8.73535H120.395V11.5005C119.205 12.3685 118.177 13.4388 117.357 14.6624C116.518 15.9209 115.839 17.2787 115.336 18.7047C114.795 20.1923 114.38 21.7229 114.096 23.2801C113.815 24.8638 113.62 26.4616 113.513 28.0664C113.401 29.6722 113.352 31.2221 113.352 32.7163H109.824C109.824 31.1167 109.88 29.4924 109.991 27.8556C110.108 26.2416 110.315 24.6354 110.611 23.0445C110.884 21.5201 111.282 20.0209 111.802 18.5621C112.29 17.1994 112.938 15.8988 113.73 14.6872C114.472 13.5241 115.407 12.4966 116.495 11.6492Z" fill="white"/>
<path id="Vector_4" d="M137.631 32.8775L130.904 8.73535H133.111L139.15 31.2717H138.97L144.953 8.73535H147.166L140.514 32.8775H137.631Z" fill="white"/>
<path id="Vector_5" d="M147.752 24.9301V23.126H161.733L161.342 23.6778V23.3678C161.347 22.2933 161.103 21.2323 160.629 20.2678C160.161 19.3185 159.443 18.5147 158.552 17.9429C157.56 17.3357 156.411 17.0319 155.248 17.0687C154.022 17.0423 152.812 17.3532 151.751 17.9677C150.751 18.5602 149.936 19.4187 149.395 20.4476C148.812 21.5859 148.52 22.8514 148.546 24.1303C148.518 25.4199 148.805 26.6968 149.383 27.8502C149.914 28.8838 150.729 29.7442 151.733 30.3302C152.808 30.9364 154.026 31.2426 155.26 31.2167C156.134 31.2323 157.005 31.1089 157.839 30.851C158.5 30.6409 159.118 30.3133 159.662 29.8838C160.102 29.526 160.475 29.0937 160.766 28.6066C161 28.2156 161.151 27.781 161.212 27.3295H163.215C163.153 28.0199 162.942 28.6885 162.595 29.2886C162.199 29.9985 161.676 30.6291 161.051 31.1485C160.319 31.7636 159.478 32.2348 158.571 32.5373C157.48 32.9089 156.332 33.0893 155.18 33.0705C153.622 33.096 152.087 32.7019 150.734 31.9297C149.446 31.183 148.388 30.0953 147.678 28.7864C146.937 27.3483 146.551 25.7541 146.551 24.1365C146.551 22.5189 146.937 20.9247 147.678 19.4867C148.404 18.1749 149.476 17.0876 150.778 16.3433C152.125 15.5687 153.657 15.1744 155.211 15.2026C156.756 15.1651 158.28 15.5672 159.606 16.362C160.826 17.1125 161.815 18.1852 162.464 19.4619C163.15 20.8378 163.496 22.3577 163.475 23.8947C163.475 24.0311 163.475 24.211 163.475 24.4279C163.475 24.6449 163.475 24.7999 163.475 24.8991L147.752 24.9301Z" fill="white"/>
<path id="Vector_6" d="M166.026 32.7169V15.4503H168.041V32.7169H166.026ZM178.425 32.7169V21.9415C178.446 21.071 178.273 20.2068 177.917 19.412C177.58 18.7 177.033 18.109 176.348 17.7195C175.512 17.2805 174.576 17.0668 173.633 17.0995C172.67 17.0967 171.724 17.3445 170.886 17.8186C170.044 18.2913 169.33 18.9641 168.809 19.7778C168.282 20.6093 168.008 21.5768 168.022 22.5615L166.782 22.1027C166.766 20.8524 167.12 19.6251 167.799 18.575C168.47 17.5417 169.386 16.6899 170.465 16.0951C171.537 15.4951 172.745 15.1812 173.974 15.1837C175.153 15.1559 176.322 15.4088 177.384 15.9215C178.326 16.3927 179.106 17.1356 179.622 18.0542C180.175 19.0904 180.446 20.2532 180.409 21.4269V32.692L178.425 32.7169Z" fill="white"/>
<path id="Vector_7" d="M189.317 32.9765C188.838 32.9798 188.361 32.9194 187.897 32.7967C187.442 32.6884 187.017 32.4762 186.657 32.1767C186.272 31.8289 185.98 31.3897 185.808 30.8996C185.58 30.236 185.475 29.5363 185.498 28.835V17.2413H181.338V15.4682H184.326C184.55 15.4732 184.774 15.4629 184.996 15.4372C185.061 15.4347 185.126 15.4191 185.186 15.3914C185.245 15.3638 185.299 15.3245 185.343 15.276C185.423 15.1541 185.468 15.0125 185.473 14.8668C185.473 14.687 185.473 14.4266 185.473 14.1042V9.89453H187.507V15.4744H193.037V17.2475H187.507V28.1096C187.468 28.8978 187.617 29.6838 187.941 30.4036C188.102 30.6853 188.343 30.9136 188.632 31.0601C188.922 31.2067 189.249 31.2651 189.571 31.2281C189.871 31.2296 190.17 31.2026 190.464 31.1475C190.693 31.1119 190.918 31.0517 191.134 30.9678V32.7285C190.886 32.8177 190.631 32.8821 190.371 32.9207C190.022 32.9685 189.669 32.9872 189.317 32.9765Z" fill="white"/>
<path id="Vector_8" d="M200.669 33.0081C199.613 33.0537 198.562 32.8409 197.606 32.3881C196.844 31.992 196.192 31.4125 195.709 30.7018C195.261 30.0255 194.94 29.2734 194.761 28.4823C194.589 27.7527 194.499 27.0061 194.494 26.2565V15.4502H196.521V25.7915C196.516 26.678 196.654 27.5595 196.931 28.4017C197.183 29.1927 197.672 29.8873 198.332 30.3918C199.12 30.9421 200.069 31.2127 201.029 31.1606C202.041 31.1772 203.032 30.8687 203.856 30.2802C204.663 29.6982 205.318 28.9305 205.765 28.0421C206.218 27.1836 206.456 26.2286 206.46 25.2583L207.7 25.7605C207.696 26.6418 207.534 27.5154 207.222 28.3397C206.9 29.1926 206.432 29.9833 205.84 30.677C205.231 31.3943 204.477 31.9735 203.626 32.3758C202.702 32.8093 201.69 33.0256 200.669 33.0081ZM206.46 32.7168V15.4502H208.475V32.7168H206.46Z" fill="white"/>
<path id="Vector_9" d="M211.805 32.717V15.4505H213.82V20.5405L213.107 20.3112C213.275 19.0623 213.813 17.8921 214.65 16.9509C215.128 16.4224 215.711 16 216.362 15.7109C217.144 15.3739 217.99 15.211 218.841 15.2335C219.405 15.2195 219.968 15.2799 220.515 15.4133C220.788 15.4784 221.054 15.5697 221.309 15.6861L220.757 17.639C220.548 17.5167 220.325 17.419 220.094 17.3476C218.851 17.0257 217.535 17.1485 216.374 17.6948C215.779 18.0288 215.273 18.5008 214.898 19.0712C214.534 19.6223 214.264 20.2298 214.099 20.8691C213.939 21.4763 213.858 22.1013 213.857 22.7291V32.7728L211.805 32.717Z" fill="white"/>
<path id="Vector_10" d="M222.104 24.9295V23.1253H236.09L235.7 23.6771V23.3671C235.702 22.2922 235.456 21.2312 234.981 20.2672C234.515 19.3183 233.799 18.5144 232.91 17.9423C231.915 17.3349 230.764 17.0311 229.599 17.0681C228.373 17.0423 227.164 17.3532 226.102 17.9671C225.104 18.5613 224.289 19.4194 223.746 20.447C223.165 21.5858 222.875 22.8513 222.903 24.1297C222.876 25.4193 223.163 26.6962 223.74 27.8496C224.27 28.8844 225.085 29.7452 226.09 30.3295C227.165 30.9375 228.383 31.2439 229.618 31.2161C230.491 31.2317 231.362 31.1083 232.197 30.8503C232.856 30.6404 233.471 30.3127 234.013 29.8832C234.455 29.5254 234.831 29.0932 235.123 28.606C235.357 28.215 235.509 27.7804 235.57 27.3288H237.566C237.502 28.0188 237.291 28.6869 236.946 29.288C236.546 29.9949 236.023 30.6248 235.402 31.1479C234.669 31.7611 233.828 32.2321 232.922 32.5367C231.831 32.9094 230.684 33.0899 229.531 33.0699C227.974 33.0954 226.438 32.7013 225.086 31.9291C223.798 31.1806 222.741 30.0934 222.029 28.7858C221.292 27.3465 220.908 25.7528 220.908 24.1359C220.908 22.519 221.292 20.9253 222.029 19.486C222.755 18.1743 223.827 17.087 225.129 16.3427C226.478 15.5682 228.013 15.1739 229.568 15.202C231.111 15.1618 232.634 15.5618 233.958 16.3551C235.178 17.1073 236.168 18.1794 236.822 19.4551C237.505 20.8314 237.85 22.3514 237.826 23.8879C237.826 24.0243 237.826 24.2041 237.826 24.4211C237.826 24.6381 237.826 24.7931 237.826 24.8923L222.104 24.9295Z" fill="white"/>
<path id="Vector_11" d="M246.406 33.0264C245.448 33.0363 244.492 32.928 243.56 32.704C242.775 32.516 242.028 32.193 241.353 31.7492C240.76 31.3613 240.267 30.8387 239.915 30.2241C239.563 29.5887 239.381 28.8733 239.388 28.1471C239.381 28.048 239.381 27.9486 239.388 27.8495V27.5829H241.446V28.0665C241.451 28.5392 241.58 29.0022 241.821 29.4092C242.061 29.8161 242.405 30.1527 242.816 30.3853C243.942 30.9883 245.211 31.2714 246.486 31.2036C247.372 31.2168 248.254 31.1062 249.109 30.875C249.776 30.6992 250.388 30.358 250.888 29.8831C251.094 29.6708 251.255 29.4192 251.362 29.1433C251.468 28.8674 251.518 28.5729 251.508 28.2773C251.535 27.8091 251.419 27.3439 251.177 26.9424C250.935 26.5409 250.577 26.2218 250.15 26.0268C248.877 25.4707 247.534 25.0911 246.158 24.8984C245.298 24.7463 244.449 24.5392 243.616 24.2784C242.89 24.0632 242.196 23.7526 241.551 23.3546C240.984 23.0015 240.508 22.5193 240.163 21.9473C239.811 21.3283 239.635 20.6252 239.654 19.9137C239.629 18.9747 239.954 18.0597 240.566 17.347C241.228 16.6064 242.072 16.0509 243.015 15.7351C244.105 15.3569 245.252 15.1702 246.406 15.1833C247.554 15.1706 248.696 15.3595 249.779 15.7413C250.739 16.0658 251.596 16.6417 252.258 17.409C252.897 18.1978 253.227 19.1913 253.188 20.2051V20.5647H251.167V20.2733C251.204 19.5765 250.966 18.8932 250.504 18.37C250.026 17.8731 249.425 17.5116 248.762 17.3222C248.021 17.0949 247.249 16.982 246.474 16.9874C245.694 16.9853 244.917 17.0832 244.161 17.2788C243.498 17.4391 242.882 17.7535 242.363 18.1964C242.136 18.4058 241.956 18.6624 241.837 18.9482C241.718 19.2341 241.663 19.5424 241.675 19.8518C241.659 20.1546 241.705 20.4576 241.812 20.7415C241.919 21.0254 242.083 21.284 242.295 21.5009C242.831 21.972 243.467 22.3155 244.155 22.5053C245.061 22.7898 245.985 23.0155 246.92 23.1811C247.816 23.3372 248.702 23.5442 249.574 23.801C250.304 24.0133 251.002 24.3219 251.651 24.7186C252.242 25.0697 252.727 25.5745 253.055 26.1792C253.382 26.784 253.54 27.4662 253.511 28.1533C253.525 28.8851 253.34 29.607 252.978 30.2427C252.601 30.8595 252.085 31.3796 251.471 31.7616C250.777 32.1922 250.017 32.5044 249.221 32.6854C248.299 32.9102 247.354 33.0247 246.406 33.0264Z" fill="white"/>
<path id="Vector_12" d="M16.5518 41.3467C26.112 20.6144 13.5449 0 13.5449 0C32.1444 8.28298 37.8111 22.2326 39.3424 32.1151C30.3589 33.4977 23.6817 38.7056 16.5518 41.3467Z" fill="white"/>
<path id="Vector_13" d="M10.6017 42.8289C7.0516 43.2086 3.46228 42.9568 0 42.0849C6.40443 35.9409 15.9956 24.062 13.5466 9.68457C13.5466 9.68457 20.881 27.7385 10.6017 42.8289Z" fill="white"/>
</g>
</svg>
