<svg width="24" height="25" viewBox="0 0 24 25" fill="none" xmlns="http://www.w3.org/2000/svg">
<path d="M16 11.4434V6.44336H18V11.4434H16ZM11 18.3434C10.4167 18.1767 9.93767 17.8517 9.563 17.3684C9.18833 16.885 9.00067 16.3267 9 15.6934V6.44336H11V18.3434ZM11.75 22.4434C10.0167 22.4434 8.54167 21.835 7.325 20.6184C6.10833 19.4017 5.5 17.9267 5.5 16.1934V6.94336C5.5 5.69336 5.93767 4.63103 6.813 3.75636C7.68833 2.88169 8.75067 2.44403 10 2.44336C11.2493 2.44269 12.312 2.88036 13.188 3.75636C14.064 4.63236 14.5013 5.69469 14.5 6.94336V14.4434H12.5V6.94336C12.4833 6.24336 12.2377 5.65169 11.763 5.16836C11.2883 4.68503 10.7007 4.44336 10 4.44336C9.29933 4.44336 8.70767 4.68503 8.225 5.16836C7.74233 5.65169 7.50067 6.24336 7.5 6.94336V16.1934C7.48333 17.3767 7.89167 18.381 8.725 19.2064C9.55833 20.0317 10.5667 20.444 11.75 20.4434C12.1667 20.4434 12.5627 20.3894 12.938 20.2814C13.3133 20.1734 13.6673 20.0107 14 19.7934V22.0184C13.65 22.1517 13.2873 22.256 12.912 22.3314C12.5367 22.4067 12.1493 22.444 11.75 22.4434ZM16 21.4434V18.4434H13V16.4434H16V13.4434H18V16.4434H21V18.4434H18V21.4434H16Z" fill="#62B6F3"/>
</svg>
